ply
format ascii 1.0
comment Created by Blender 2.69 (sub 0) - www.blender.org, source file: 'banc2.blend'
element vertex 424
property float x
property float y
property float z
property float nx
property float ny
property float nz
property float s
property float t
property uchar red
property uchar green
property uchar blue
element face 110
property list uchar uint vertex_indices
end_header
-0.596718 -1.002744 0.585377 -0.227871 0.000000 -0.973691 0.496618 0.432142 0 0 0
-0.596718 -1.066573 0.585377 -0.227871 0.000000 -0.973691 0.496524 0.432142 0 0 0
-0.660415 -1.066573 0.600284 -0.227871 0.000000 -0.973691 0.496524 0.429426 0 0 0
-0.660415 -1.002744 0.600284 -0.227871 0.000000 -0.973691 0.496617 0.429426 0 0 0
-0.530177 -1.002744 0.643199 0.000000 1.000000 -0.000000 0.488101 0.420090 0 0 0
0.006484 -1.002744 0.643199 0.000000 1.000000 -0.000000 0.488101 0.442555 0 0 0
0.006484 -1.002744 0.585377 0.000000 1.000000 -0.000000 0.486921 0.442500 0 0 0
-0.530177 -1.002744 0.585377 0.000000 1.000000 -0.000000 0.486921 0.420035 0 0 0
0.006484 -1.066573 0.585377 0.000000 0.000000 0.000000 0.502730 0.435138 255 255 255
0.006484 -1.002744 0.585377 0.000000 0.000000 0.000000 0.502640 0.435138 255 255 255
0.006484 -1.002744 0.585377 0.000000 0.000000 0.000000 0.502640 0.435135 255 255 255
0.006484 -1.066573 0.585377 0.000000 0.000000 0.000000 0.502730 0.435135 255 255 255
-0.596718 -1.066573 0.585377 0.000000 -1.000000 -0.000000 0.501254 0.435378 0 0 0
-0.530177 -1.066573 0.585377 0.000000 -1.000000 -0.000000 0.502701 0.435378 0 0 0
-0.530177 -1.066573 0.643199 0.000000 -1.000000 -0.000000 0.502730 0.437650 0 0 0
-0.596718 -1.066573 0.643199 0.000000 -1.000000 -0.000000 0.501283 0.437650 0 0 0
0.006484 -1.066573 0.643199 0.000000 -1.000000 0.000000 0.489341 0.442555 0 0 0
-0.530177 -1.066573 0.643199 0.000000 -1.000000 0.000000 0.489341 0.420090 0 0 0
-0.530177 -1.066573 0.585377 0.000000 -1.000000 0.000000 0.490521 0.420035 0 0 0
0.006484 -1.066573 0.585377 0.000000 -1.000000 0.000000 0.490521 0.442500 0 0 0
-0.660415 -1.002744 0.600284 -0.811257 -0.000000 -0.584690 0.501327 0.445955 0 0 0
-0.660415 -1.066573 0.600284 -0.811257 -0.000000 -0.584690 0.501327 0.445775 0 0 0
-0.700185 -1.066573 0.655464 -0.811257 -0.000000 -0.584690 0.502730 0.445775 0 0 0
-0.700185 -1.002744 0.655464 -0.811257 -0.000000 -0.584690 0.502730 0.445955 0 0 0
-0.596718 -1.002744 0.643199 -0.000000 1.000000 0.000000 0.499719 0.437214 0 0 0
-0.596718 -1.002744 0.585377 -0.000000 1.000000 0.000000 0.498560 0.437650 0 0 0
-0.660415 -1.002744 0.600284 -0.000000 1.000000 0.000000 0.498560 0.434934 0 0 0
-0.624484 -1.002744 0.648879 -0.000000 1.000000 0.000000 0.499703 0.436037 0 0 0
-0.596718 -1.066573 0.643199 0.200418 0.000000 0.979710 0.498530 0.437650 0 0 0
-0.596718 -1.002744 0.643199 0.200418 0.000000 0.979710 0.498437 0.437650 0 0 0
-0.624484 -1.002744 0.648879 0.200418 0.000000 0.979710 0.498437 0.436472 0 0 0
-0.624484 -1.066573 0.648879 0.200418 0.000000 0.979710 0.498530 0.436472 0 0 0
-0.596718 -1.066573 0.585377 0.000000 -1.000000 0.000000 0.498553 0.429911 0 0 0
-0.596718 -1.066573 0.643199 0.000000 -1.000000 0.000000 0.498326 0.432142 0 0 0
-0.624484 -1.066573 0.648879 0.000000 -1.000000 0.000000 0.497715 0.432110 0 0 0
-0.660415 -1.066573 0.600284 0.000000 -1.000000 0.000000 0.497142 0.429911 0 0 0
-0.624484 -1.002744 0.648879 0.000000 1.000000 0.000000 0.498819 0.434555 0 0 0
-0.660415 -1.002744 0.600284 0.000000 1.000000 0.000000 0.498503 0.432172 0 0 0
-0.700185 -1.002744 0.655464 0.000000 1.000000 0.000000 0.499907 0.432172 0 0 0
-0.643258 -1.002744 0.665603 0.000000 1.000000 0.000000 0.499331 0.434330 0 0 0
-0.624484 -1.066573 0.648879 0.665174 0.000000 0.746689 0.501648 0.435084 0 0 0
-0.624484 -1.002744 0.648879 0.665174 0.000000 0.746689 0.501648 0.434904 0 0 0
-0.643258 -1.002744 0.665603 0.665174 0.000000 0.746689 0.502174 0.434904 0 0 0
-0.643258 -1.066573 0.665603 0.665174 0.000000 0.746689 0.502174 0.435084 0 0 0
-0.660415 -1.066573 0.600284 0.000000 -1.000000 -0.000000 0.500310 0.445287 0 0 0
-0.624484 -1.066573 0.648879 0.000000 -1.000000 -0.000000 0.499072 0.444680 0 0 0
-0.643258 -1.066573 0.665603 0.000000 -1.000000 -0.000000 0.499189 0.443693 0 0 0
-0.700185 -1.066573 0.655464 0.000000 -1.000000 -0.000000 0.500310 0.442585 0 0 0
0.006484 -1.066573 0.585377 0.049150 0.000000 -0.998791 0.500237 0.434972 0 0 0
0.006484 -1.002744 0.585377 0.049150 0.000000 -0.998791 0.500330 0.434972 0 0 0
0.012347 -1.002744 0.585665 0.049150 0.000000 -0.998791 0.500330 0.435218 0 0 0
0.012347 -1.066573 0.585665 0.049150 0.000000 -0.998791 0.500237 0.435218 0 0 0
0.006484 -1.066573 0.643199 0.000000 0.000000 0.000000 0.501297 0.445813 255 255 255
0.006484 -1.066573 0.585377 0.000000 0.000000 0.000000 0.500162 0.445813 255 255 255
0.006484 -1.066573 0.585377 0.000000 0.000000 0.000000 0.500162 0.445775 255 255 255
0.006484 -1.066573 0.643199 0.000000 0.000000 0.000000 0.501296 0.445775 255 255 255
0.006484 -1.002744 0.643199 0.000000 0.000000 0.000000 0.502400 0.435135 255 255 255
0.006484 -1.066573 0.643199 0.000000 0.000000 0.000000 0.502490 0.435135 255 255 255
0.006484 -1.066573 0.643199 0.000000 0.000000 0.000000 0.502490 0.435138 255 255 255
0.006484 -1.002744 0.643199 0.000000 0.000000 0.000000 0.502400 0.435138 255 255 255
0.006484 -1.002744 0.585377 0.000000 0.000000 0.000000 0.500484 0.435046 255 255 255
0.006484 -1.002744 0.643199 0.000000 0.000000 0.000000 0.501618 0.435046 255 255 255
0.006484 -1.002744 0.643199 0.000000 0.000000 0.000000 0.501618 0.435084 255 255 255
0.006484 -1.002744 0.585377 0.000000 0.000000 0.000000 0.500484 0.435084 255 255 255
-0.596718 -1.066573 0.585377 -0.990950 0.000000 0.134230 0.501175 0.426940 0 0 0
-0.596718 -1.002744 0.585377 -0.990950 0.000000 0.134230 0.501173 0.427210 0 0 0
-0.675142 -1.002744 0.006416 -0.990950 0.000000 0.134230 0.493155 0.427210 0 0 0
-0.675142 -1.066573 0.006416 -0.990950 0.000000 0.134230 0.493156 0.426940 0 0 0
0.006484 -1.066573 0.643199 -0.000000 -1.000000 0.000000 0.497373 0.427266 0 0 0
0.006484 -1.066573 0.585377 -0.000000 -1.000000 0.000000 0.498553 0.427266 0 0 0
0.012347 -1.066573 0.585665 -0.000000 -1.000000 0.000000 0.498544 0.427512 0 0 0
0.068972 -1.066573 0.597374 -0.000000 -1.000000 0.000000 0.498275 0.429881 0 0 0
0.006484 -1.002744 0.643199 0.591367 0.000000 0.806403 0.496895 0.429002 0 0 0
0.006484 -1.066573 0.643199 0.591367 0.000000 0.806403 0.496989 0.429002 0 0 0
0.068972 -1.066573 0.597374 0.591367 0.000000 0.806403 0.496989 0.432142 0 0 0
0.068972 -1.002744 0.597374 0.591367 0.000000 0.806403 0.496895 0.432142 0 0 0
0.006484 -1.002744 0.585377 0.000000 1.000000 0.000000 0.496477 0.433430 0 0 0
0.006484 -1.002744 0.643199 0.000000 1.000000 0.000000 0.497460 0.432172 0 0 0
0.068972 -1.002744 0.597374 0.000000 1.000000 0.000000 0.497460 0.435311 0 0 0
0.012347 -1.002744 0.585665 0.000000 1.000000 0.000000 0.496555 0.433624 0 0 0
0.160343 -1.002744 0.006416 0.000002 0.000000 -1.000000 0.496447 0.437047 0 0 0
0.160343 -1.066573 0.006416 0.000002 0.000000 -1.000000 0.496353 0.437047 0 0 0
0.102538 -1.066573 0.006416 0.000002 0.000000 -1.000000 0.496353 0.434627 0 0 0
0.102538 -1.002744 0.006416 0.000002 0.000000 -1.000000 0.496447 0.434627 0 0 0
0.160343 -1.066573 0.006416 0.988257 0.000000 0.152801 0.493090 0.426309 0 0 0
0.160343 -1.002744 0.006416 0.988257 0.000000 0.152801 0.493091 0.426038 0 0 0
0.068972 -1.002744 0.597374 0.988257 0.000000 0.152801 0.501175 0.426038 0 0 0
0.068972 -1.066573 0.597374 0.988257 0.000000 0.152801 0.501173 0.426309 0 0 0
-0.596718 -1.002744 0.643199 0.000000 1.000000 -0.000000 0.501520 0.442641 0 0 0
-0.530177 -1.002744 0.643199 0.000000 1.000000 -0.000000 0.501520 0.445426 0 0 0
-0.530177 -1.002744 0.585377 0.000000 1.000000 -0.000000 0.500340 0.445371 0 0 0
-0.596718 -1.002744 0.585377 0.000000 1.000000 -0.000000 0.500340 0.442585 0 0 0
-0.675142 -1.066573 0.006416 -0.000000 0.000000 -1.000000 0.496771 0.429356 0 0 0
-0.675142 -1.002744 0.006416 -0.000000 0.000000 -1.000000 0.496865 0.429356 0 0 0
-0.608600 -1.002744 0.006416 -0.000000 0.000000 -1.000000 0.496865 0.432142 0 0 0
-0.608600 -1.066573 0.006416 -0.000000 0.000000 -1.000000 0.496771 0.432142 0 0 0
0.012347 -1.066573 0.585665 -0.000000 -1.000000 -0.000000 0.502665 0.440103 0 0 0
0.102538 -1.066573 0.006416 -0.000000 -1.000000 -0.000000 0.490726 0.440077 0 0 0
0.160343 -1.066573 0.006416 -0.000000 -1.000000 -0.000000 0.490551 0.437680 0 0 0
0.068972 -1.066573 0.597374 -0.000000 -1.000000 -0.000000 0.502730 0.437680 0 0 0
0.160343 -1.002744 0.006416 0.000000 1.000000 0.000000 0.490551 0.442555 0 0 0
0.102538 -1.002744 0.006416 0.000000 1.000000 0.000000 0.490726 0.440159 0 0 0
0.012347 -1.002744 0.585665 0.000000 1.000000 0.000000 0.502665 0.440133 0 0 0
0.068972 -1.002744 0.597374 0.000000 1.000000 0.000000 0.502730 0.442555 0 0 0
0.012347 -1.002744 0.585665 -0.988094 0.000000 -0.153849 0.502774 0.422299 0 0 0
0.102538 -1.002744 0.006416 -0.988094 0.000000 -0.153849 0.494770 0.422299 0 0 0
0.102538 -1.066573 0.006416 -0.988094 0.000000 -0.153849 0.494769 0.422030 0 0 0
0.012347 -1.066573 0.585665 -0.988094 0.000000 -0.153849 0.502773 0.422030 0 0 0
-0.608600 -1.002744 0.006416 0.000000 1.000000 0.000000 0.503000 0.445981 0 0 0
-0.675142 -1.002744 0.006416 0.000000 1.000000 0.000000 0.502760 0.443234 0 0 0
-0.596718 -1.002744 0.585377 0.000000 1.000000 0.000000 0.514742 0.443234 0 0 0
-0.530177 -1.002744 0.585377 0.000000 1.000000 0.000000 0.514983 0.445981 0 0 0
-0.530177 -1.066573 0.585377 0.990950 0.000000 -0.134230 0.510823 0.422598 0 0 0
-0.608600 -1.066573 0.006416 0.990950 0.000000 -0.134230 0.502805 0.422598 0 0 0
-0.608600 -1.002744 0.006416 0.990950 0.000000 -0.134230 0.502804 0.422329 0 0 0
-0.530177 -1.002744 0.585377 0.990950 0.000000 -0.134230 0.510822 0.422329 0 0 0
-0.596718 -1.066573 0.585377 -0.000000 -1.000000 0.000000 0.514742 0.440427 0 0 0
-0.675142 -1.066573 0.006416 -0.000000 -1.000000 0.000000 0.502760 0.440427 0 0 0
-0.608600 -1.066573 0.006416 -0.000000 -1.000000 0.000000 0.503000 0.437680 0 0 0
-0.530177 -1.066573 0.585377 -0.000000 -1.000000 0.000000 0.514983 0.437680 0 0 0
-0.700185 -1.066573 0.655464 0.000000 -1.000000 0.000000 0.501205 0.432418 0 0 0
-0.643258 -1.066573 0.665603 0.000000 -1.000000 0.000000 0.501206 0.429992 0 0 0
-0.761883 -1.066573 1.331601 0.000000 -1.000000 0.000000 0.514983 0.429992 0 0 0
-0.818809 -1.066573 1.321462 0.000000 -1.000000 0.000000 0.514981 0.432418 0 0 0
-0.643258 -1.066573 0.665603 0.984505 0.000000 0.175355 0.492575 0.425689 0 0 0
-0.643258 -1.002744 0.665603 0.984505 0.000000 0.175355 0.492577 0.425400 0 0 0
-0.761883 -1.002744 1.331601 0.984505 0.000000 0.175355 0.501175 0.425400 0 0 0
-0.761883 -1.066573 1.331601 0.984505 0.000000 0.175355 0.501173 0.425689 0 0 0
-0.643258 -1.002744 0.665603 0.000000 1.000000 0.000000 0.501206 0.427507 0 0 0
-0.700185 -1.002744 0.655464 0.000000 1.000000 0.000000 0.501205 0.425081 0 0 0
-0.818809 -1.002744 1.321462 0.000000 1.000000 0.000000 0.514981 0.425081 0 0 0
-0.761883 -1.002744 1.331601 0.000000 1.000000 0.000000 0.514983 0.427507 0 0 0
-0.818809 -1.066573 1.321462 -0.175354 0.000000 0.984505 0.497236 0.427456 0 0 0
-0.761883 -1.066573 1.331601 -0.175354 0.000000 0.984505 0.497236 0.429881 0 0 0
-0.761883 -1.002744 1.331601 -0.175354 0.000000 0.984505 0.497142 0.429881 0 0 0
-0.818809 -1.002744 1.321462 -0.175354 0.000000 0.984505 0.497142 0.427456 0 0 0
-0.700185 -1.002744 0.655464 -0.984505 -0.000000 -0.175355 0.492575 0.425370 0 0 0
-0.700185 -1.066573 0.655464 -0.984505 -0.000000 -0.175355 0.492577 0.425081 0 0 0
-0.818809 -1.066573 1.321462 -0.984505 -0.000000 -0.175355 0.501175 0.425081 0 0 0
-0.818809 -1.002744 1.321462 -0.984505 -0.000000 -0.175355 0.501173 0.425370 0 0 0
-0.530177 -1.002744 0.643199 0.000000 0.000000 1.000000 0.485354 0.428218 0 0 0
-0.596718 -1.002744 0.643199 0.000000 0.000000 1.000000 0.485372 0.424354 0 0 0
-0.596718 -1.066573 0.643199 0.000000 0.000000 1.000000 0.485502 0.424356 0 0 0
0.006484 -1.002744 0.643199 0.000000 -0.000000 1.000000 0.485354 0.442553 0 0 0
0.006484 -1.066573 0.643199 0.000000 0.000000 1.000000 0.485484 0.442555 0 0 0
-0.596718 -1.066573 0.643199 0.000000 1.000000 0.000000 0.485502 0.424356 0 0 0
-0.530177 -1.066573 0.643199 0.000000 1.000000 0.000000 0.485484 0.428220 0 0 0
0.006484 -1.066573 0.643199 0.000000 1.000000 0.000000 0.485484 0.442555 0 0 0
-0.530177 -1.002744 0.585377 -0.000000 0.000000 -1.000000 0.485324 0.427319 0 0 0
0.006484 -1.002744 0.585377 -0.000000 0.000000 -1.000000 0.485324 0.442553 0 0 0
0.006484 -1.066573 0.585377 -0.000000 0.000000 -1.000000 0.485186 0.442555 0 0 0
-0.530177 -1.066573 0.585377 -0.000000 0.000000 -1.000000 0.485186 0.427321 0 0 0
-0.596718 1.066256 0.585377 -0.227870 0.000000 -0.973692 0.496494 0.432142 0 0 0
-0.596718 1.002427 0.585377 -0.227870 0.000000 -0.973692 0.496400 0.432142 0 0 0
-0.660415 1.002427 0.600283 -0.227870 0.000000 -0.973692 0.496400 0.429426 0 0 0
-0.660415 1.066256 0.600283 -0.227870 0.000000 -0.973692 0.496494 0.429426 0 0 0
-0.530177 1.066256 0.643199 0.000000 1.000000 -0.000000 0.486891 0.420090 0 0 0
0.006484 1.066256 0.643199 0.000000 1.000000 -0.000000 0.486891 0.442555 0 0 0
0.006484 1.066256 0.585377 0.000000 1.000000 -0.000000 0.485711 0.442500 0 0 0
-0.530177 1.066256 0.585377 0.000000 1.000000 -0.000000 0.485711 0.420035 0 0 0
0.006484 1.002427 0.585377 0.000000 0.000000 0.000000 0.502370 0.435138 255 255 255
0.006484 1.066256 0.585377 0.000000 0.000000 0.000000 0.502280 0.435138 255 255 255
0.006484 1.066256 0.585377 0.000000 0.000000 0.000000 0.502280 0.435135 255 255 255
0.006484 1.002427 0.585377 0.000000 0.000000 0.000000 0.502370 0.435135 255 255 255
-0.530177 1.002427 0.643199 0.000000 -1.000000 0.000000 0.501224 0.437650 0 0 0
-0.596718 1.002427 0.643199 0.000000 -1.000000 0.000000 0.499778 0.437650 0 0 0
-0.596718 1.002427 0.585377 0.000000 -1.000000 0.000000 0.499749 0.435378 0 0 0
-0.530177 1.002427 0.585377 0.000000 -1.000000 0.000000 0.501196 0.435378 0 0 0
0.006484 1.002427 0.643199 0.000000 -1.000000 0.000000 0.488131 0.442555 0 0 0
-0.530177 1.002427 0.643199 0.000000 -1.000000 0.000000 0.488131 0.420090 0 0 0
-0.530177 1.002427 0.585377 0.000000 -1.000000 0.000000 0.489311 0.420035 0 0 0
0.006484 1.002427 0.585377 0.000000 -1.000000 0.000000 0.489311 0.442500 0 0 0
-0.660415 1.066256 0.600283 -0.811257 0.000000 -0.584690 0.501327 0.435348 0 0 0
-0.660415 1.002427 0.600283 -0.811257 0.000000 -0.584690 0.501327 0.435168 0 0 0
-0.700185 1.002427 0.655464 -0.811257 0.000000 -0.584690 0.502730 0.435168 0 0 0
-0.700185 1.066256 0.655464 -0.811257 0.000000 -0.584690 0.502730 0.435348 0 0 0
-0.596718 1.066256 0.643199 -0.000000 1.000000 0.000000 0.499741 0.431706 0 0 0
-0.596718 1.066256 0.585377 -0.000000 1.000000 0.000000 0.498583 0.432142 0 0 0
-0.660415 1.066256 0.600283 -0.000000 1.000000 0.000000 0.498583 0.429426 0 0 0
-0.624484 1.066256 0.648879 -0.000000 1.000000 0.000000 0.499725 0.430528 0 0 0
-0.596718 1.002427 0.643199 0.200419 0.000000 0.979710 0.498407 0.437650 0 0 0
-0.596718 1.066256 0.643199 0.200419 0.000000 0.979710 0.498313 0.437650 0 0 0
-0.624484 1.066256 0.648879 0.200419 0.000000 0.979710 0.498313 0.436472 0 0 0
-0.624484 1.002427 0.648879 0.200419 0.000000 0.979710 0.498407 0.436472 0 0 0
-0.596718 1.002427 0.585377 0.000000 -1.000000 0.000000 0.499042 0.443057 0 0 0
-0.596718 1.002427 0.643199 0.000000 -1.000000 0.000000 0.498815 0.445287 0 0 0
-0.624484 1.002427 0.648879 0.000000 -1.000000 0.000000 0.498203 0.445256 0 0 0
-0.660415 1.002427 0.600283 0.000000 -1.000000 0.000000 0.497631 0.443057 0 0 0
-0.624484 1.066256 0.648879 0.000000 1.000000 0.000000 0.500087 0.432142 0 0 0
-0.660415 1.066256 0.600283 0.000000 1.000000 0.000000 0.499771 0.429758 0 0 0
-0.700185 1.066256 0.655464 0.000000 1.000000 0.000000 0.501175 0.429758 0 0 0
-0.643258 1.066256 0.665603 0.000000 1.000000 0.000000 0.500599 0.431916 0 0 0
-0.624484 1.002427 0.648879 0.665173 0.000000 0.746689 0.502204 0.435084 0 0 0
-0.624484 1.066256 0.648879 0.665173 0.000000 0.746689 0.502204 0.434904 0 0 0
-0.643258 1.066256 0.665603 0.665173 0.000000 0.746689 0.502730 0.434904 0 0 0
-0.643258 1.002427 0.665603 0.665173 0.000000 0.746689 0.502730 0.435084 0 0 0
-0.660415 1.002427 0.600283 0.000000 -1.000000 -0.000000 0.501175 0.434874 0 0 0
-0.624484 1.002427 0.648879 0.000000 -1.000000 -0.000000 0.499937 0.434266 0 0 0
-0.643258 1.002427 0.665603 0.000000 -1.000000 -0.000000 0.500054 0.433280 0 0 0
-0.700185 1.002427 0.655464 0.000000 -1.000000 -0.000000 0.501175 0.432172 0 0 0
0.006484 1.002427 0.585377 0.049161 0.000000 -0.998791 0.500360 0.434972 0 0 0
0.006484 1.066256 0.585377 0.049161 0.000000 -0.998791 0.500454 0.434972 0 0 0
0.012347 1.066256 0.585665 0.049161 0.000000 -0.998791 0.500454 0.435218 0 0 0
0.012347 1.002427 0.585665 0.049161 0.000000 -0.998791 0.500360 0.435218 0 0 0
0.006484 1.002427 0.643199 0.000000 0.000000 0.000000 0.501618 0.435010 255 255 255
0.006484 1.002427 0.585377 0.000000 0.000000 0.000000 0.500484 0.435010 255 255 255
0.006484 1.002427 0.585377 0.000000 0.000000 0.000000 0.500484 0.434972 255 255 255
0.006484 1.002427 0.643199 0.000000 0.000000 0.000000 0.501618 0.434972 255 255 255
0.006484 1.066256 0.643199 0.000000 0.000000 0.000000 0.502520 0.435135 255 255 255
0.006484 1.002427 0.643199 0.000000 0.000000 0.000000 0.502610 0.435135 255 255 255
0.006484 1.002427 0.643199 0.000000 0.000000 0.000000 0.502610 0.435138 255 255 255
0.006484 1.066256 0.643199 0.000000 0.000000 0.000000 0.502520 0.435138 255 255 255
0.006484 1.066256 0.585377 0.000000 0.000000 0.000000 0.500484 0.434904 255 255 255
0.006484 1.066256 0.643199 0.000000 0.000000 0.000000 0.501618 0.434904 255 255 255
0.006484 1.066256 0.643199 0.000000 0.000000 0.000000 0.501618 0.434942 255 255 255
0.006484 1.066256 0.585377 0.000000 0.000000 0.000000 0.500484 0.434942 255 255 255
-0.675142 1.066256 0.006416 -0.990950 0.000000 0.134230 0.493155 0.426910 0 0 0
-0.675142 1.002427 0.006416 -0.990950 0.000000 0.134230 0.493156 0.426641 0 0 0
-0.596718 1.002427 0.585377 -0.990950 0.000000 0.134230 0.501175 0.426641 0 0 0
-0.596718 1.066256 0.585377 -0.990950 0.000000 0.134230 0.501173 0.426910 0 0 0
0.006484 1.002427 0.643199 -0.000000 -1.000000 0.000000 0.496421 0.442672 0 0 0
0.006484 1.002427 0.585377 -0.000000 -1.000000 0.000000 0.497601 0.442672 0 0 0
0.012347 1.002427 0.585665 -0.000000 -1.000000 0.000000 0.497592 0.442918 0 0 0
0.068972 1.002427 0.597374 -0.000000 -1.000000 0.000000 0.497323 0.445287 0 0 0
0.006484 1.066256 0.643199 0.591368 0.000000 0.806402 0.497019 0.429002 0 0 0
0.006484 1.002427 0.643199 0.591368 0.000000 0.806402 0.497112 0.429002 0 0 0
0.068972 1.002427 0.597374 0.591368 0.000000 0.806402 0.497112 0.432142 0 0 0
0.068972 1.066256 0.597374 0.591368 0.000000 0.806402 0.497019 0.432142 0 0 0
0.006484 1.066256 0.585377 0.000000 1.000000 0.000000 0.497490 0.433430 0 0 0
0.006484 1.066256 0.643199 0.000000 1.000000 0.000000 0.498473 0.432172 0 0 0
0.068972 1.066256 0.597374 0.000000 1.000000 0.000000 0.498473 0.435311 0 0 0
0.012347 1.066256 0.585665 0.000000 1.000000 0.000000 0.497568 0.433624 0 0 0
0.160343 1.066256 0.006416 0.000000 0.000000 -1.000000 0.499865 0.429728 0 0 0
0.160343 1.002427 0.006416 0.000000 0.000000 -1.000000 0.499771 0.429728 0 0 0
0.102538 1.002427 0.006416 0.000000 0.000000 -1.000000 0.499771 0.427308 0 0 0
0.102538 1.066256 0.006416 0.000000 0.000000 -1.000000 0.499865 0.427308 0 0 0
0.160343 1.002427 0.006416 0.988257 0.000000 0.152801 0.493090 0.426611 0 0 0
0.160343 1.066256 0.006416 0.988257 0.000000 0.152801 0.493091 0.426339 0 0 0
0.068972 1.066256 0.597374 0.988257 0.000000 0.152801 0.501175 0.426339 0 0 0
0.068972 1.002427 0.597374 0.988257 0.000000 0.152801 0.501173 0.426611 0 0 0
-0.596718 1.066256 0.643199 0.000000 1.000000 -0.000000 0.502730 0.442641 0 0 0
-0.530177 1.066256 0.643199 0.000000 1.000000 -0.000000 0.502730 0.445426 0 0 0
-0.530177 1.066256 0.585377 0.000000 1.000000 -0.000000 0.501550 0.445371 0 0 0
-0.596718 1.066256 0.585377 0.000000 1.000000 -0.000000 0.501550 0.442585 0 0 0
-0.675142 1.002427 0.006416 0.000002 0.000000 -1.000000 0.496648 0.429356 0 0 0
-0.675142 1.066256 0.006416 0.000002 0.000000 -1.000000 0.496741 0.429356 0 0 0
-0.608600 1.066256 0.006416 0.000002 0.000000 -1.000000 0.496741 0.432142 0 0 0
-0.608600 1.002427 0.006416 0.000002 0.000000 -1.000000 0.496648 0.432142 0 0 0
0.012347 1.002427 0.585665 -0.000000 -1.000000 -0.000000 0.502709 0.425051 0 0 0
0.102538 1.002427 0.006416 -0.000000 -1.000000 -0.000000 0.490770 0.425025 0 0 0
0.160343 1.002427 0.006416 -0.000000 -1.000000 -0.000000 0.490596 0.422628 0 0 0
0.068972 1.002427 0.597374 -0.000000 -1.000000 -0.000000 0.502774 0.422628 0 0 0
0.160343 1.066256 0.006416 0.000000 1.000000 0.000000 0.502804 0.425051 0 0 0
0.102538 1.066256 0.006416 0.000000 1.000000 0.000000 0.502979 0.422655 0 0 0
0.012347 1.066256 0.585665 0.000000 1.000000 0.000000 0.514918 0.422628 0 0 0
0.068972 1.066256 0.597374 0.000000 1.000000 0.000000 0.514983 0.425051 0 0 0
0.012347 1.066256 0.585665 -0.988094 0.000000 -0.153849 0.510809 0.422299 0 0 0
0.102538 1.066256 0.006416 -0.988094 0.000000 -0.153849 0.502805 0.422299 0 0 0
0.102538 1.002427 0.006416 -0.988094 0.000000 -0.153849 0.502804 0.422030 0 0 0
0.012347 1.002427 0.585665 -0.988094 0.000000 -0.153849 0.510808 0.422030 0 0 0
-0.608600 1.066256 0.006416 0.000000 1.000000 0.000000 0.503000 0.443204 0 0 0
-0.675142 1.066256 0.006416 0.000000 1.000000 0.000000 0.502760 0.440457 0 0 0
-0.596718 1.066256 0.585377 0.000000 1.000000 0.000000 0.514742 0.440457 0 0 0
-0.530177 1.066256 0.585377 0.000000 1.000000 0.000000 0.514983 0.443204 0 0 0
-0.530177 1.002427 0.585377 0.990950 0.000000 -0.134230 0.502774 0.422598 0 0 0
-0.608600 1.002427 0.006416 0.990950 0.000000 -0.134230 0.494756 0.422598 0 0 0
-0.608600 1.066256 0.006416 0.990950 0.000000 -0.134230 0.494755 0.422329 0 0 0
-0.530177 1.066256 0.585377 0.990950 0.000000 -0.134230 0.502773 0.422329 0 0 0
-0.596718 1.002427 0.585377 -0.000000 -1.000000 0.000000 0.514742 0.437650 0 0 0
-0.675142 1.002427 0.006416 -0.000000 -1.000000 0.000000 0.502760 0.437650 0 0 0
-0.608600 1.002427 0.006416 -0.000000 -1.000000 0.000000 0.503000 0.434904 0 0 0
-0.530177 1.002427 0.585377 -0.000000 -1.000000 0.000000 0.514983 0.434904 0 0 0
-0.700185 1.002427 0.655464 0.000000 -1.000000 0.000000 0.501205 0.434874 0 0 0
-0.643258 1.002427 0.665603 0.000000 -1.000000 0.000000 0.501206 0.432448 0 0 0
-0.761883 1.002427 1.331601 0.000000 -1.000000 0.000000 0.514983 0.432448 0 0 0
-0.818809 1.002427 1.321462 0.000000 -1.000000 0.000000 0.514981 0.434874 0 0 0
-0.643258 1.002427 0.665603 0.984505 0.000000 0.175355 0.492575 0.426008 0 0 0
-0.643258 1.066256 0.665603 0.984505 0.000000 0.175355 0.492577 0.425719 0 0 0
-0.761883 1.066256 1.331601 0.984505 0.000000 0.175355 0.501175 0.425719 0 0 0
-0.761883 1.002427 1.331601 0.984505 0.000000 0.175355 0.501173 0.426008 0 0 0
-0.643258 1.066256 0.665603 0.000000 1.000000 0.000000 0.501206 0.429962 0 0 0
-0.700185 1.066256 0.655464 0.000000 1.000000 0.000000 0.501205 0.427537 0 0 0
-0.818809 1.066256 1.321462 0.000000 1.000000 0.000000 0.514981 0.427537 0 0 0
-0.761883 1.066256 1.331601 0.000000 1.000000 0.000000 0.514983 0.429962 0 0 0
-0.818809 1.002427 1.321462 -0.175356 0.000000 0.984505 0.496447 0.432172 0 0 0
-0.761883 1.002427 1.331601 -0.175356 0.000000 0.984505 0.496447 0.434597 0 0 0
-0.761883 1.066256 1.331601 -0.175356 0.000000 0.984505 0.496353 0.434597 0 0 0
-0.818809 1.066256 1.321462 -0.175356 0.000000 0.984505 0.496353 0.432172 0 0 0
-0.700185 1.066256 0.655464 -0.984505 0.000000 -0.175355 0.494130 0.445745 0 0 0
-0.700185 1.002427 0.655464 -0.984505 0.000000 -0.175355 0.494132 0.445456 0 0 0
-0.818809 1.002427 1.321462 -0.984505 0.000000 -0.175355 0.502730 0.445456 0 0 0
-0.818809 1.066256 1.321462 -0.984505 0.000000 -0.175355 0.502728 0.445745 0 0 0
-0.530177 1.066256 0.643199 0.000000 0.000000 1.000000 0.485532 0.428219 0 0 0
-0.596718 1.066256 0.643199 0.000000 0.000000 1.000000 0.485551 0.424354 0 0 0
-0.596718 1.002427 0.643199 0.000000 0.000000 1.000000 0.485681 0.424356 0 0 0
0.006484 1.066256 0.643199 0.000000 -0.000000 1.000000 0.485532 0.442553 0 0 0
0.006484 1.002427 0.643199 0.000000 0.000000 1.000000 0.485662 0.442555 0 0 0
-0.596718 1.002427 0.643199 0.000000 1.000000 0.000000 0.485681 0.424356 0 0 0
-0.530177 1.002427 0.643199 0.000000 1.000000 0.000000 0.485662 0.428222 0 0 0
0.006484 1.002427 0.643199 0.000000 1.000000 0.000000 0.485662 0.442555 0 0 0
-0.530177 1.066256 0.585377 -0.000000 0.000000 -1.000000 0.485156 0.427319 0 0 0
0.006484 1.066256 0.585377 -0.000000 0.000000 -1.000000 0.485156 0.442553 0 0 0
0.006484 1.002427 0.585377 -0.000000 0.000000 -1.000000 0.485018 0.442555 0 0 0
-0.530177 1.002427 0.585377 -0.000000 0.000000 -1.000000 0.485018 0.427321 0 0 0
-0.315931 -1.432066 0.639285 -1.000000 -0.000000 0.000000 0.184534 0.075045 139 99 74
-0.315931 -1.432066 0.682776 -1.000000 -0.000000 0.000000 0.184534 0.000295 139 99 74
-0.315931 1.430655 0.682776 -1.000000 -0.000000 0.000000 0.368185 0.000295 140 100 75
-0.315931 1.430655 0.639285 -1.000000 -0.000000 0.000000 0.368185 0.075045 140 100 75
-0.315931 1.430655 0.639285 0.000000 1.000000 0.000000 0.999705 0.307557 140 100 75
-0.315931 1.430655 0.682776 0.000000 1.000000 0.000000 0.960893 0.305741 140 100 75
-0.149072 1.430655 0.682776 0.000000 1.000000 0.000000 0.960894 0.000295 140 100 75
-0.149072 1.430655 0.639285 0.000000 1.000000 0.000000 0.999705 0.002110 137 97 72
-0.149072 1.430655 0.639285 1.000000 -0.000000 0.000000 0.368185 0.380492 125 85 60
-0.149072 1.430655 0.682776 1.000000 -0.000000 0.000000 0.368185 0.455242 140 100 75
-0.149072 -1.432066 0.682776 1.000000 -0.000000 0.000000 0.184534 0.455242 140 100 75
-0.149072 -1.432066 0.639285 1.000000 -0.000000 0.000000 0.184534 0.380492 138 98 73
-0.149072 -1.432066 0.639285 0.000000 -1.000000 0.000000 0.921493 0.309962 138 98 73
-0.149072 -1.432066 0.682776 0.000000 -1.000000 0.000000 0.960304 0.308146 140 100 75
-0.315931 -1.432066 0.682776 0.000000 -1.000000 0.000000 0.960304 0.613593 139 99 74
-0.315931 -1.432066 0.639285 0.000000 -1.000000 0.000000 0.921492 0.615409 139 99 74
-0.315931 -1.432066 0.682776 0.000000 0.000000 1.000000 0.184534 0.760689 139 99 74
-0.149072 -1.432066 0.682776 0.000000 0.000000 1.000000 0.184534 0.455242 140 100 75
-0.149072 1.430655 0.682776 0.000000 0.000000 1.000000 0.368185 0.455242 140 100 75
-0.315931 1.430655 0.682776 0.000000 0.000000 1.000000 0.368185 0.760689 141 101 76
-0.149072 -1.432066 0.639285 0.000000 -0.000000 -1.000000 0.184534 0.380492 138 98 73
-0.315931 -1.432066 0.639285 0.000000 -0.000000 -1.000000 0.184534 0.075045 139 99 74
-0.315931 1.430655 0.639285 0.000000 -0.000000 -1.000000 0.368185 0.075045 140 100 75
-0.149072 1.430655 0.639285 0.000000 -0.000000 -1.000000 0.368185 0.380492 137 97 72
-0.083931 -1.432066 0.639285 -1.000000 -0.000000 0.000000 0.000295 0.075045 139 99 74
-0.083931 -1.432066 0.682776 -1.000000 -0.000000 0.000000 0.000295 0.000295 139 99 74
-0.083931 1.430655 0.682776 -1.000000 -0.000000 0.000000 0.183945 0.000295 140 100 75
-0.083931 1.430655 0.639285 -1.000000 -0.000000 0.000000 0.183945 0.075045 140 100 75
-0.083931 1.430655 0.639285 0.000000 1.000000 0.000000 0.960304 0.307557 140 100 75
-0.083931 1.430655 0.682776 0.000000 1.000000 0.000000 0.921492 0.305741 140 100 75
0.082928 1.430655 0.682776 0.000000 1.000000 0.000000 0.921492 0.000295 140 100 75
0.082928 1.430655 0.639285 0.000000 1.000000 0.000000 0.960304 0.002110 137 97 72
0.082928 1.430655 0.639285 1.000000 0.000000 0.000001 0.183945 0.380492 125 85 60
0.082928 1.430655 0.682776 1.000000 0.000000 0.000001 0.183945 0.455243 140 100 75
0.082928 -1.432066 0.682776 1.000000 0.000000 0.000001 0.000295 0.455243 140 100 75
0.082928 -1.432066 0.639285 1.000000 0.000000 0.000001 0.000295 0.380492 138 98 73
0.082928 -1.432066 0.639285 0.000000 -1.000000 0.000000 0.960894 0.617814 138 98 73
0.082928 -1.432066 0.682776 0.000000 -1.000000 0.000000 0.999705 0.615998 140 100 75
-0.083931 -1.432066 0.682776 0.000000 -1.000000 0.000000 0.999705 0.921445 139 99 74
-0.083931 -1.432066 0.639285 0.000000 -1.000000 0.000000 0.960893 0.923261 139 99 74
-0.083931 -1.432066 0.682776 -0.000000 0.000000 1.000000 0.000295 0.760690 139 99 74
0.082928 -1.432066 0.682776 -0.000000 0.000000 1.000000 0.000295 0.455243 140 100 75
0.082928 1.430655 0.682776 -0.000000 0.000000 1.000000 0.183945 0.455243 140 100 75
-0.083931 1.430655 0.682776 -0.000000 0.000000 1.000000 0.183945 0.760689 141 101 76
0.082928 -1.432066 0.639285 0.000000 -0.000000 -1.000000 0.000295 0.380492 137 98 73
-0.083931 -1.432066 0.639285 0.000000 -0.000000 -1.000000 0.000295 0.075045 139 99 74
-0.083931 1.430655 0.639285 0.000000 -0.000000 -1.000000 0.183945 0.075045 140 100 75
0.082928 1.430655 0.639285 0.000000 -0.000000 -1.000000 0.183945 0.380492 137 97 72
-0.560159 -1.432066 0.639285 -1.000000 -0.000000 0.000000 0.368774 0.075045 139 99 74
-0.560159 -1.432066 0.682776 -1.000000 -0.000000 0.000000 0.368774 0.000295 139 99 74
-0.560159 1.430655 0.682776 -1.000000 -0.000000 0.000000 0.552424 0.000295 140 100 75
-0.560159 1.430655 0.639285 -1.000000 -0.000000 0.000000 0.552424 0.075045 140 100 75
-0.560159 1.430655 0.639285 0.000000 1.000000 0.000000 0.999705 0.615409 140 100 75
-0.560159 1.430655 0.682776 0.000000 1.000000 0.000000 0.960893 0.613593 140 100 75
-0.393300 1.430655 0.682776 0.000000 1.000000 0.000000 0.960893 0.308146 140 100 75
-0.393300 1.430655 0.639285 0.000000 1.000000 0.000000 0.999705 0.309962 137 97 72
-0.393300 1.430655 0.639285 1.000000 0.000000 0.000001 0.552424 0.380492 125 85 60
-0.393300 1.430655 0.682776 1.000000 0.000000 0.000001 0.552424 0.455243 140 100 75
-0.393300 -1.432066 0.682776 1.000000 0.000000 0.000001 0.368774 0.455243 140 100 75
-0.393300 -1.432066 0.639285 1.000000 0.000000 0.000001 0.368774 0.380492 138 98 73
-0.393300 -1.432066 0.639285 0.000000 -1.000000 0.000000 0.921492 0.617814 138 98 73
-0.393300 -1.432066 0.682776 0.000000 -1.000000 0.000000 0.960304 0.615998 140 100 75
-0.560159 -1.432066 0.682776 0.000000 -1.000000 0.000000 0.960304 0.921445 139 99 74
-0.560159 -1.432066 0.639285 0.000000 -1.000000 0.000000 0.921492 0.923261 139 99 74
-0.560159 -1.432066 0.682776 0.000000 0.000000 1.000000 0.368774 0.760689 139 99 74
-0.393300 -1.432066 0.682776 0.000000 0.000000 1.000000 0.368774 0.455243 140 100 75
-0.393300 1.430655 0.682776 0.000000 0.000000 1.000000 0.552424 0.455243 140 100 75
-0.560159 1.430655 0.682776 0.000000 0.000000 1.000000 0.552424 0.760689 139 99 74
-0.393300 -1.432066 0.639285 -0.000000 0.000000 -1.000000 0.368774 0.380492 138 98 73
-0.560159 -1.432066 0.639285 -0.000000 0.000000 -1.000000 0.368774 0.075045 139 99 74
-0.560159 1.430655 0.639285 -0.000000 0.000000 -1.000000 0.552424 0.075045 140 100 75
-0.393300 1.430655 0.639285 -0.000000 0.000000 -1.000000 0.552424 0.380492 137 97 72
-0.729306 -1.432066 1.130812 -0.182818 0.000000 0.983147 0.553013 0.080076 139 99 74
-0.686549 -1.432066 1.138763 -0.182818 0.000000 0.983147 0.553013 0.000295 140 100 75
-0.686549 1.430655 1.138763 -0.182818 0.000000 0.983147 0.736664 0.000295 140 100 75
-0.729306 1.430655 1.130812 -0.182818 0.000000 0.983147 0.736664 0.080076 140 100 75
-0.729306 1.430655 1.130812 0.000000 1.000000 -0.000000 0.553013 0.812432 140 100 75
-0.686549 1.430655 1.138763 0.000000 1.000000 -0.000000 0.553013 0.732650 140 100 75
-0.656044 1.430655 0.974716 0.000000 1.000000 -0.000000 0.701607 0.732650 135 95 70
-0.698801 1.430655 0.966765 0.000000 1.000000 -0.000000 0.701607 0.812432 140 100 75
-0.698801 1.430655 0.966765 0.182818 0.000000 -0.983147 0.736664 0.366178 139 99 74
-0.656044 1.430655 0.974716 0.182818 0.000000 -0.983147 0.736664 0.445959 136 96 71
-0.656044 -1.432066 0.974716 0.182818 0.000000 -0.983147 0.553014 0.445960 138 98 73
-0.698801 -1.432066 0.966765 0.182818 0.000000 -0.983147 0.553014 0.366178 139 99 74
-0.698801 -1.432066 0.966765 0.000000 -1.000000 -0.000000 0.148888 0.761279 139 99 74
-0.656044 -1.432066 0.974716 0.000000 -1.000000 -0.000000 0.148888 0.841060 138 98 73
-0.686549 -1.432066 1.138763 0.000000 -1.000000 -0.000000 0.000295 0.841060 140 100 75
-0.729306 -1.432066 1.130812 0.000000 -1.000000 -0.000000 0.000295 0.761279 139 99 74
-0.686549 -1.432066 1.138763 0.983147 0.000000 0.182819 0.553014 0.732061 140 100 75
-0.656044 -1.432066 0.974716 0.983147 0.000000 0.182819 0.553014 0.445960 138 99 74
-0.656044 1.430655 0.974716 0.983147 0.000000 0.182819 0.736664 0.445959 137 97 72
-0.686549 1.430655 1.138763 0.983147 0.000000 0.182819 0.736664 0.732061 140 100 75
-0.698801 -1.432066 0.966765 -0.983147 0.000000 -0.182819 0.553014 0.366178 139 99 74
-0.729306 -1.432066 1.130812 -0.983147 0.000000 -0.182819 0.553013 0.080076 139 99 74
-0.729306 1.430655 1.130812 -0.983147 0.000000 -0.182819 0.736664 0.080076 140 100 75
-0.698801 1.430655 0.966765 -0.983147 0.000000 -0.182819 0.736664 0.366178 140 100 75
-0.771821 -1.432066 1.359440 -0.182821 0.000000 0.983146 0.737253 0.080076 139 99 74
-0.729063 -1.432066 1.367391 -0.182821 0.000000 0.983146 0.737253 0.000295 140 100 75
-0.729063 1.430655 1.367391 -0.182821 0.000000 0.983146 0.920903 0.000295 140 100 75
-0.771821 1.430655 1.359440 -0.182821 0.000000 0.983146 0.920903 0.080076 139 99 74
-0.771821 1.430655 1.359440 0.000000 1.000000 -0.000000 0.333716 0.841060 139 99 74
-0.729063 1.430655 1.367391 0.000000 1.000000 -0.000000 0.333716 0.761278 140 100 75
-0.698558 1.430655 1.203345 0.000000 1.000000 -0.000000 0.482310 0.761278 135 95 70
-0.741316 1.430655 1.195394 0.000000 1.000000 -0.000000 0.482310 0.841060 140 100 75
-0.741316 1.430655 1.195394 0.182821 0.000000 -0.983146 0.920903 0.366177 139 99 74
-0.698558 1.430655 1.203345 0.182821 0.000000 -0.983146 0.920903 0.445959 136 96 71
-0.698558 -1.432066 1.203345 0.182821 0.000000 -0.983146 0.737253 0.445959 138 98 73
-0.741316 -1.432066 1.195394 0.182821 0.000000 -0.983146 0.737253 0.366178 139 99 74
-0.741316 -1.432066 1.195394 0.000000 -1.000000 -0.000000 0.333127 0.761278 139 99 74
-0.698558 -1.432066 1.203345 0.000000 -1.000000 -0.000000 0.333127 0.841060 138 98 73
-0.729063 -1.432066 1.367391 0.000000 -1.000000 -0.000000 0.184534 0.841060 140 100 75
-0.771821 -1.432066 1.359440 0.000000 -1.000000 -0.000000 0.184534 0.761278 139 99 74
-0.729063 -1.432066 1.367391 0.983147 0.000000 0.182819 0.737253 0.732061 140 100 75
-0.698558 -1.432066 1.203345 0.983147 0.000000 0.182819 0.737253 0.445959 138 99 74
-0.698558 1.430655 1.203345 0.983147 0.000000 0.182819 0.920903 0.445959 137 97 72
-0.729063 1.430655 1.367391 0.983147 0.000000 0.182819 0.920903 0.732061 140 100 75
-0.741316 -1.432066 1.195394 -0.983147 0.000000 -0.182819 0.737253 0.366178 139 99 74
-0.771821 -1.432066 1.359440 -0.983147 0.000000 -0.182819 0.737253 0.080076 139 99 74
-0.771821 1.430655 1.359440 -0.983147 0.000000 -0.182819 0.920903 0.080076 139 99 74
-0.741316 1.430655 1.195394 -0.983147 0.000000 -0.182819 0.920903 0.366177 140 100 75
4 0 1 2 3
4 4 5 6 7
4 8 9 10 11
4 12 13 14 15
4 16 17 18 19
4 20 21 22 23
4 24 25 26 27
4 28 29 30 31
4 32 33 34 35
4 36 37 38 39
4 40 41 42 43
4 44 45 46 47
4 48 49 50 51
4 52 53 54 55
4 56 57 58 59
4 60 61 62 63
4 64 65 66 67
4 68 69 70 71
4 72 73 74 75
4 76 77 78 79
4 80 81 82 83
4 84 85 86 87
4 88 89 90 91
4 92 93 94 95
4 96 97 98 99
4 100 101 102 103
4 104 105 106 107
4 108 109 110 111
4 112 113 114 115
4 116 117 118 119
4 120 121 122 123
4 124 125 126 127
4 128 129 130 131
4 132 133 134 135
4 136 137 138 139
3 140 141 142
3 140 142 143
3 142 144 143
3 145 146 147
4 148 149 150 151
4 152 153 154 155
4 156 157 158 159
4 160 161 162 163
4 164 165 166 167
4 168 169 170 171
4 172 173 174 175
4 176 177 178 179
4 180 181 182 183
4 184 185 186 187
4 188 189 190 191
4 192 193 194 195
4 196 197 198 199
4 200 201 202 203
4 204 205 206 207
4 208 209 210 211
4 212 213 214 215
4 216 217 218 219
4 220 221 222 223
4 224 225 226 227
4 228 229 230 231
4 232 233 234 235
4 236 237 238 239
4 240 241 242 243
4 244 245 246 247
4 248 249 250 251
4 252 253 254 255
4 256 257 258 259
4 260 261 262 263
4 264 265 266 267
4 268 269 270 271
4 272 273 274 275
4 276 277 278 279
4 280 281 282 283
4 284 285 286 287
4 288 289 290 291
3 292 293 294
3 292 294 295
3 294 296 295
3 297 298 299
4 300 301 302 303
4 304 305 306 307
4 308 309 310 311
4 312 313 314 315
4 316 317 318 319
4 320 321 322 323
4 324 325 326 327
4 328 329 330 331
4 332 333 334 335
4 336 337 338 339
4 340 341 342 343
4 344 345 346 347
4 348 349 350 351
4 352 353 354 355
4 356 357 358 359
4 360 361 362 363
4 364 365 366 367
4 368 369 370 371
4 372 373 374 375
4 376 377 378 379
4 380 381 382 383
4 384 385 386 387
4 388 389 390 391
4 392 393 394 395
4 396 397 398 399
4 400 401 402 403
4 404 405 406 407
4 408 409 410 411
4 412 413 414 415
4 416 417 418 419
4 420 421 422 423
