ply
format ascii 1.0
comment Created by Blender 2.69 (sub 0) - www.blender.org, source file: 'larger_world.blend'
element vertex 4
property float x
property float y
property float z
property float nx
property float ny
property float nz
property uchar red
property uchar green
property uchar blue
element face 1
property list uchar uint vertex_indices
end_header
-6.256740 -2.300000 0.133300 0.000000 0.000000 1.000000 22 167 255
2.300000 -2.300000 0.133300 0.000000 0.000000 1.000000 22 167 255
2.300000 2.300000 0.133300 0.000000 0.000000 1.000000 22 167 255
-6.256740 2.300000 0.133300 0.000000 0.000000 1.000000 22 167 255
4 0 1 2 3
