ply
format ascii 1.0
comment Created by Blender 2.69 (sub 0) - www.blender.org, source file: 'support_sphere.blend'
element vertex 96
property float x
property float y
property float z
property float nx
property float ny
property float nz
property uchar red
property uchar green
property uchar blue
element face 80
property list uchar uint vertex_indices
end_header
0.000000 0.110022 2.000000 0.000000 0.999054 0.043458 38 38 38
0.000000 0.100000 2.500000 0.000000 0.999756 0.020875 38 38 38
0.019134 0.092388 2.500000 0.589404 0.807550 0.020386 38 38 38
0.023449 0.101647 2.000000 0.560625 0.826930 0.042970 38 38 38
0.035355 0.070711 2.500000 0.875057 0.483505 0.020631 38 38 38
0.043328 0.077797 2.000000 0.856685 0.513932 0.043611 38 38 38
0.046194 0.038268 2.500000 0.975127 0.220496 0.021607 38 38 38
0.056610 0.042103 2.000000 0.969939 0.238990 0.045320 38 38 38
0.050000 -0.000000 2.500000 0.999756 0.000000 0.022065 38 38 38
0.061274 -0.000000 2.000000 0.998932 0.000000 0.046113 38 38 38
0.046194 -0.038268 2.500000 0.975127 -0.220496 0.021607 38 38 38
0.056610 -0.042103 2.000000 0.969939 -0.238990 0.045320 38 38 38
0.035355 -0.070711 2.500000 0.875057 -0.483505 0.020631 38 38 38
0.043328 -0.077797 2.000000 0.856685 -0.513932 0.043611 38 38 38
0.019134 -0.092388 2.500000 0.589404 -0.807550 0.020386 38 38 38
0.023449 -0.101647 2.000000 0.560625 -0.826930 0.042970 38 38 38
0.000000 -0.100000 2.500000 0.000000 -0.999756 0.020875 38 38 38
0.000000 -0.110022 2.000000 0.000000 -0.999054 0.043458 38 38 38
-0.019134 -0.092388 2.500000 -0.589404 -0.807550 0.020386 38 38 38
-0.023449 -0.101647 2.000000 -0.560625 -0.826930 0.042970 38 38 38
-0.035355 -0.070711 2.500000 -0.875057 -0.483505 0.020631 38 38 38
-0.043327 -0.077797 2.000000 -0.856685 -0.513932 0.043611 38 38 38
-0.046194 -0.038268 2.500000 -0.975127 -0.220496 0.021607 38 38 38
-0.056610 -0.042103 2.000000 -0.969939 -0.238990 0.045320 38 38 38
-0.050000 -0.000000 2.500000 -0.999756 0.000000 0.022065 38 38 38
-0.061274 -0.000000 2.000000 -0.998932 0.000000 0.046113 38 38 38
-0.046194 0.038268 2.500000 -0.975127 0.220496 0.021607 38 38 38
-0.056610 0.042103 2.000000 -0.969939 0.238990 0.045320 38 38 38
-0.035355 0.070711 2.500000 -0.875057 0.483505 0.020631 38 38 38
-0.043327 0.077797 2.000000 -0.856685 0.513932 0.043611 38 38 38
-0.023449 0.101647 2.000000 -0.560625 0.826930 0.042970 38 38 38
-0.019134 0.092388 2.500000 -0.589404 0.807550 0.020386 38 38 38
0.000000 0.500000 0.000000 0.000000 0.938658 0.344768 38 38 38
0.000000 0.317435 0.500000 0.000000 0.957366 0.288797 38 38 38
0.112744 0.293271 0.500000 0.387524 0.874020 0.293039 38 38 38
0.191342 0.461940 0.000000 0.367901 0.861507 0.349895 38 38 38
0.000000 0.202094 1.000000 0.000000 0.984313 0.176275 38 38 38
0.063087 0.186710 1.000000 0.437300 0.881375 0.178533 38 38 38
0.000000 0.141765 1.500000 0.000000 0.995514 0.094302 38 38 38
0.037115 0.130973 1.500000 0.498367 0.861751 0.094699 38 38 38
0.208324 0.224460 0.500000 0.696280 0.650594 0.303079 38 38 38
0.353553 0.353553 0.000000 0.669149 0.649007 0.361950 38 38 38
0.116570 0.142902 1.000000 0.754906 0.629414 0.184210 38 38 38
0.068579 0.100243 1.500000 0.810968 0.576922 0.097049 38 38 38
0.272188 0.121477 0.500000 0.885739 0.342875 0.312845 38 38 38
0.461940 0.191342 0.000000 0.860714 0.345775 0.373577 38 38 38
0.152307 0.077338 1.000000 0.928037 0.320261 0.190039 38 38 38
0.089603 0.054251 1.500000 0.954619 0.280313 0.100284 38 38 38
0.294614 -0.000000 0.500000 0.948485 0.000000 0.316782 38 38 38
0.500000 -0.000000 0.000000 0.925687 0.000000 0.378277 38 38 38
0.164855 -0.000000 1.000000 0.981292 0.000000 0.192450 38 38 38
0.096985 -0.000000 1.500000 0.994781 0.000000 0.101718 38 38 38
0.272188 -0.121477 0.500000 0.885739 -0.342875 0.312845 38 38 38
0.461940 -0.191342 0.000000 0.860714 -0.345775 0.373577 38 38 38
0.152307 -0.077338 1.000000 0.928037 -0.320261 0.190039 38 38 38
0.089603 -0.054251 1.500000 0.954619 -0.280313 0.100284 38 38 38
0.208324 -0.224460 0.500000 0.696280 -0.650594 0.303079 38 38 38
0.353553 -0.353553 0.000000 0.669149 -0.649007 0.361950 38 38 38
0.116570 -0.142902 1.000000 0.754906 -0.629414 0.184210 38 38 38
0.068579 -0.100243 1.500000 0.810968 -0.576922 0.097049 38 38 38
0.112744 -0.293271 0.500000 0.387524 -0.874020 0.293039 38 38 38
0.191342 -0.461940 0.000000 0.367901 -0.861507 0.349895 38 38 38
0.063087 -0.186710 1.000000 0.437300 -0.881375 0.178533 38 38 38
0.037115 -0.130974 1.500000 0.498367 -0.861751 0.094699 38 38 38
0.000000 -0.317435 0.500000 0.000000 -0.957366 0.288797 38 38 38
0.000000 -0.500000 0.000000 0.000000 -0.938658 0.344768 38 38 38
0.000000 -0.202094 1.000000 0.000000 -0.984313 0.176275 38 38 38
0.000000 -0.141765 1.500000 0.000000 -0.995514 0.094302 38 38 38
-0.112744 -0.293271 0.500000 -0.387524 -0.874020 0.293039 38 38 38
-0.191342 -0.461940 0.000000 -0.367901 -0.861507 0.349895 38 38 38
-0.063087 -0.186710 1.000000 -0.437300 -0.881375 0.178533 38 38 38
-0.037115 -0.130974 1.500000 -0.498367 -0.861751 0.094699 38 38 38
-0.208323 -0.224460 0.500000 -0.696280 -0.650594 0.303079 38 38 38
-0.353553 -0.353554 0.000000 -0.669149 -0.649007 0.361950 38 38 38
-0.116570 -0.142902 1.000000 -0.754906 -0.629414 0.184210 38 38 38
-0.068579 -0.100243 1.500000 -0.810968 -0.576922 0.097049 38 38 38
-0.272188 -0.121477 0.500000 -0.885739 -0.342875 0.312845 38 38 38
-0.461940 -0.191342 0.000000 -0.860714 -0.345775 0.373577 38 38 38
-0.152306 -0.077338 1.000000 -0.928037 -0.320261 0.190039 38 38 38
-0.089603 -0.054251 1.500000 -0.954619 -0.280313 0.100284 38 38 38
-0.294614 -0.000000 0.500000 -0.948485 0.000000 0.316782 38 38 38
-0.500000 0.000000 0.000000 -0.925687 0.000000 0.378277 38 38 38
-0.164855 -0.000000 1.000000 -0.981292 0.000000 0.192450 38 38 38
-0.096985 -0.000000 1.500000 -0.994781 0.000000 0.101718 38 38 38
-0.272188 0.121477 0.500000 -0.885739 0.342875 0.312845 38 38 38
-0.461940 0.191342 0.000000 -0.860714 0.345775 0.373577 38 38 38
-0.152306 0.077338 1.000000 -0.928037 0.320261 0.190039 38 38 38
-0.089603 0.054251 1.500000 -0.954619 0.280313 0.100284 38 38 38
-0.208323 0.224460 0.500000 -0.696280 0.650594 0.303079 38 38 38
-0.353553 0.353554 0.000000 -0.669149 0.649007 0.361950 38 38 38
-0.116570 0.142902 1.000000 -0.754906 0.629414 0.184210 38 38 38
-0.068579 0.100243 1.500000 -0.810968 0.576922 0.097049 38 38 38
-0.191341 0.461940 0.000000 -0.367901 0.861507 0.349895 38 38 38
-0.112744 0.293271 0.500000 -0.387524 0.874020 0.293039 38 38 38
-0.063087 0.186710 1.000000 -0.437300 0.881375 0.178533 38 38 38
-0.037115 0.130974 1.500000 -0.498367 0.861751 0.094699 38 38 38
4 0 1 2 3
4 3 2 4 5
4 5 4 6 7
4 7 6 8 9
4 9 8 10 11
4 11 10 12 13
4 13 12 14 15
4 15 14 16 17
4 17 16 18 19
4 19 18 20 21
4 21 20 22 23
4 23 22 24 25
4 25 24 26 27
4 27 26 28 29
4 30 31 1 0
4 29 28 31 30
4 32 33 34 35
4 33 36 37 34
4 36 38 39 37
4 38 0 3 39
4 35 34 40 41
4 34 37 42 40
4 37 39 43 42
4 39 3 5 43
4 41 40 44 45
4 40 42 46 44
4 42 43 47 46
4 43 5 7 47
4 45 44 48 49
4 44 46 50 48
4 46 47 51 50
4 47 7 9 51
4 49 48 52 53
4 48 50 54 52
4 50 51 55 54
4 51 9 11 55
4 53 52 56 57
4 52 54 58 56
4 54 55 59 58
4 55 11 13 59
4 57 56 60 61
4 56 58 62 60
4 58 59 63 62
4 59 13 15 63
4 61 60 64 65
4 60 62 66 64
4 62 63 67 66
4 63 15 17 67
4 65 64 68 69
4 64 66 70 68
4 66 67 71 70
4 67 17 19 71
4 69 68 72 73
4 68 70 74 72
4 70 71 75 74
4 71 19 21 75
4 73 72 76 77
4 72 74 78 76
4 74 75 79 78
4 75 21 23 79
4 77 76 80 81
4 76 78 82 80
4 78 79 83 82
4 79 23 25 83
4 81 80 84 85
4 80 82 86 84
4 82 83 87 86
4 83 25 27 87
4 85 84 88 89
4 84 86 90 88
4 86 87 91 90
4 87 27 29 91
4 33 32 92 93
4 93 94 36 33
4 94 95 38 36
4 95 30 0 38
4 89 88 93 92
4 88 90 94 93
4 90 91 95 94
4 91 29 30 95
