ply
format ascii 1.0
comment Created by Blender 2.69 (sub 0) - www.blender.org, source file: 'sphere.blend'
element vertex 314
property float x
property float y
property float z
property float nx
property float ny
property float nz
property uchar red
property uchar green
property uchar blue
element face 336
property list uchar uint vertex_indices
end_header
-0.106633 0.000000 -0.467191 -0.231330 0.000000 -0.972869 173 201 209
-0.207919 0.000000 -0.431749 -0.441389 0.000000 -0.897305 173 201 209
-0.200835 0.053814 -0.431749 -0.426344 0.114231 -0.897305 173 201 209
-0.103000 0.027599 -0.467191 -0.223457 0.059877 -0.972869 173 201 209
-0.298780 0.000000 -0.374658 -0.629109 0.000000 -0.777306 173 201 209
-0.288599 0.077330 -0.374658 -0.607685 0.162816 -0.777306 173 201 209
-0.374658 0.000000 -0.298780 -0.785394 0.000000 -0.618976 173 201 209
-0.361892 0.096969 -0.298780 -0.758629 0.203253 -0.618976 173 201 209
-0.431749 0.000000 -0.207919 -0.902676 0.000000 -0.430280 173 201 209
-0.417038 0.111745 -0.207919 -0.871914 0.233619 -0.430280 173 201 209
-0.467191 0.000000 -0.106633 -0.975372 0.000000 -0.220527 173 201 209
-0.451272 0.120918 -0.106633 -0.942137 0.252419 -0.220527 173 201 209
-0.479205 0.000000 0.000000 -0.999969 0.000000 0.000000 173 201 209
-0.462877 0.124028 0.000000 -0.965911 0.258797 0.000000 173 201 209
-0.467191 0.000000 0.106633 -0.975372 0.000000 0.220527 173 201 209
-0.451272 0.120918 0.106633 -0.942137 0.252419 0.220527 173 201 209
-0.431749 0.000000 0.207919 -0.902676 0.000000 0.430280 173 201 209
-0.417038 0.111745 0.207919 -0.871914 0.233619 0.430280 173 201 209
-0.374658 0.000000 0.298780 -0.785394 0.000000 0.618976 173 201 209
-0.361892 0.096969 0.298780 -0.758629 0.203253 0.618976 173 201 209
-0.298780 0.000000 0.374658 -0.629109 0.000000 0.777306 173 201 209
-0.288599 0.077330 0.374658 -0.607685 0.162816 0.777306 173 201 209
-0.207919 0.000000 0.431749 -0.441389 0.000000 0.897305 173 201 209
-0.200835 0.053814 0.431749 -0.426344 0.114231 0.897305 173 201 209
-0.106633 0.000000 0.467191 -0.231330 0.000000 0.972869 173 201 209
-0.103000 0.027599 0.467191 -0.223457 0.059877 0.972869 173 201 209
-0.180063 0.103960 -0.431749 -0.382244 0.220679 -0.897305 173 201 209
-0.092347 0.053317 -0.467191 -0.200354 0.115665 -0.972869 173 201 209
-0.258751 0.149390 -0.374658 -0.544816 0.314554 -0.777306 173 201 209
-0.324463 0.187329 -0.298780 -0.680166 0.392682 -0.618976 173 201 209
-0.373906 0.215875 -0.207919 -0.781732 0.451338 -0.430280 173 201 209
-0.404599 0.233595 -0.106633 -0.844691 0.487686 -0.220527 173 201 209
-0.415004 0.239603 0.000000 -0.866024 0.499985 0.000000 173 201 209
-0.404599 0.233595 0.106633 -0.844691 0.487686 0.220527 173 201 209
-0.373906 0.215875 0.207919 -0.781732 0.451338 0.430280 173 201 209
-0.324463 0.187329 0.298780 -0.680166 0.392682 0.618976 173 201 209
-0.258751 0.149390 0.374658 -0.544816 0.314554 0.777306 173 201 209
-0.180063 0.103960 0.431749 -0.382244 0.220679 0.897305 173 201 209
-0.092347 0.053317 0.467191 -0.200354 0.115665 0.972869 173 201 209
-0.147021 0.147021 -0.431749 -0.312082 0.312082 -0.897305 173 201 209
-0.075401 0.075401 -0.467191 -0.163579 0.163579 -0.972869 173 201 209
-0.211269 0.211269 -0.374658 -0.444838 0.444838 -0.777306 173 201 209
-0.264923 0.264923 -0.298780 -0.555345 0.555345 -0.618976 173 201 209
-0.305293 0.305293 -0.207919 -0.638295 0.638295 -0.430280 173 201 209
-0.330354 0.330354 -0.106633 -0.689688 0.689688 -0.220527 173 201 209
-0.338849 0.338849 0.000000 -0.707083 0.707083 0.000000 173 201 209
-0.330354 0.330354 0.106633 -0.689688 0.689688 0.220527 173 201 209
-0.305293 0.305293 0.207919 -0.638295 0.638295 0.430280 173 201 209
-0.264923 0.264923 0.298780 -0.555345 0.555345 0.618976 173 201 209
-0.211269 0.211269 0.374658 -0.444838 0.444838 0.777306 173 201 209
-0.147021 0.147021 0.431749 -0.312082 0.312082 0.897305 173 201 209
-0.075401 0.075401 0.467191 -0.163579 0.163579 0.972869 173 201 209
-0.103960 0.180064 -0.431749 -0.220679 0.382244 -0.897305 173 201 209
-0.053316 0.092347 -0.467191 -0.115665 0.200354 -0.972869 173 201 209
-0.149390 0.258751 -0.374658 -0.314554 0.544816 -0.777306 173 201 209
-0.187329 0.324463 -0.298780 -0.392682 0.680166 -0.618976 173 201 209
-0.215874 0.373906 -0.207919 -0.451338 0.781732 -0.430280 173 201 209
-0.233595 0.404599 -0.106633 -0.487686 0.844691 -0.220527 173 201 209
-0.239603 0.415004 0.000000 -0.499985 0.866024 0.000000 173 201 209
-0.233595 0.404599 0.106633 -0.487686 0.844691 0.220527 173 201 209
-0.215874 0.373906 0.207919 -0.451338 0.781732 0.430280 173 201 209
-0.187329 0.324463 0.298780 -0.392682 0.680166 0.618976 173 201 209
-0.149390 0.258751 0.374658 -0.314554 0.544816 0.777306 173 201 209
-0.103960 0.180064 0.431749 -0.220679 0.382244 0.897305 173 201 209
-0.053317 0.092347 0.467191 -0.115665 0.200354 0.972869 173 201 209
-0.053813 0.200835 -0.431749 -0.114231 0.426344 -0.897305 173 201 209
-0.027599 0.103000 -0.467191 -0.059877 0.223457 -0.972869 173 201 209
-0.077330 0.288599 -0.374658 -0.162816 0.607685 -0.777306 173 201 209
-0.096968 0.361892 -0.298780 -0.203253 0.758629 -0.618976 173 201 209
-0.111745 0.417038 -0.207919 -0.233619 0.871914 -0.430280 173 201 209
-0.120918 0.451272 -0.106633 -0.252419 0.942137 -0.220527 173 201 209
-0.124027 0.462877 0.000000 -0.258797 0.965911 0.000000 173 201 209
-0.120918 0.451272 0.106633 -0.252419 0.942137 0.220527 173 201 209
-0.111745 0.417038 0.207919 -0.233619 0.871914 0.430280 173 201 209
-0.096968 0.361892 0.298780 -0.203253 0.758629 0.618976 173 201 209
-0.077330 0.288599 0.374658 -0.162816 0.607685 0.777306 173 201 209
-0.053813 0.200835 0.431749 -0.114231 0.426344 0.897305 173 201 209
-0.027599 0.103000 0.467191 -0.059877 0.223457 0.972869 173 201 209
0.000000 0.207920 -0.431749 0.000000 0.441389 -0.897305 173 201 209
0.000000 0.106633 -0.467191 0.000000 0.231330 -0.972869 173 201 209
0.000000 0.298780 -0.374658 0.000000 0.629109 -0.777306 173 201 209
0.000000 0.374658 -0.298780 0.000000 0.785394 -0.618976 173 201 209
0.000000 0.431749 -0.207919 0.000000 0.902676 -0.430280 173 201 209
0.000000 0.467191 -0.106633 0.000000 0.975372 -0.220527 173 201 209
0.000000 0.479205 0.000000 0.000000 1.000000 0.000000 173 201 209
0.000000 0.467191 0.106633 0.000000 0.975372 0.220527 173 201 209
0.000000 0.431749 0.207919 0.000000 0.902676 0.430280 173 201 209
0.000000 0.374658 0.298780 0.000000 0.785394 0.618976 173 201 209
0.000000 0.298780 0.374658 0.000000 0.629109 0.777306 173 201 209
0.000000 0.207920 0.431749 0.000000 0.441389 0.897305 173 201 209
0.000000 0.106633 0.467191 0.000000 0.231330 0.972869 173 201 209
0.053814 0.200835 -0.431749 0.114231 0.426344 -0.897305 173 201 209
0.027599 0.103000 -0.467191 0.059877 0.223457 -0.972869 173 201 209
0.077330 0.288599 -0.374658 0.162816 0.607685 -0.777306 173 201 209
0.096969 0.361892 -0.298780 0.203253 0.758629 -0.618976 173 201 209
0.111745 0.417038 -0.207919 0.233619 0.871914 -0.430280 173 201 209
0.120918 0.451272 -0.106633 0.252419 0.942137 -0.220527 173 201 209
0.124028 0.462877 0.000000 0.258797 0.965911 0.000000 173 201 209
0.120918 0.451272 0.106633 0.252419 0.942137 0.220527 173 201 209
0.111745 0.417038 0.207919 0.233619 0.871914 0.430280 173 201 209
0.096969 0.361892 0.298780 0.203253 0.758629 0.618976 173 201 209
0.077330 0.288599 0.374658 0.162816 0.607685 0.777306 173 201 209
0.053814 0.200835 0.431749 0.114231 0.426344 0.897305 173 201 209
0.027599 0.103000 0.467191 0.059877 0.223457 0.972869 173 201 209
0.103960 0.180064 -0.431749 0.220679 0.382244 -0.897305 173 201 209
0.053317 0.092347 -0.467191 0.115665 0.200354 -0.972869 173 201 209
0.149390 0.258751 -0.374658 0.314554 0.544816 -0.777306 173 201 209
0.187329 0.324463 -0.298780 0.392682 0.680166 -0.618976 173 201 209
0.215875 0.373906 -0.207919 0.451338 0.781732 -0.430280 173 201 209
0.233596 0.404599 -0.106633 0.487686 0.844691 -0.220527 173 201 209
0.239603 0.415004 0.000000 0.499985 0.866024 0.000000 173 201 209
0.233596 0.404599 0.106633 0.487686 0.844691 0.220527 173 201 209
0.215875 0.373906 0.207919 0.451338 0.781732 0.430280 173 201 209
0.187329 0.324463 0.298780 0.392682 0.680166 0.618976 173 201 209
0.149390 0.258751 0.374658 0.314554 0.544816 0.777306 173 201 209
0.103960 0.180064 0.431749 0.220679 0.382244 0.897305 173 201 209
0.053317 0.092347 0.467191 0.115665 0.200354 0.972869 173 201 209
0.147022 0.147021 -0.431749 0.312082 0.312082 -0.897305 173 201 209
0.075401 0.075401 -0.467191 0.163579 0.163579 -0.972869 173 201 209
0.211269 0.211269 -0.374658 0.444838 0.444838 -0.777306 173 201 209
0.264923 0.264923 -0.298780 0.555345 0.555345 -0.618976 173 201 209
0.305293 0.305293 -0.207919 0.638295 0.638295 -0.430280 173 201 209
0.330354 0.330354 -0.106633 0.689688 0.689688 -0.220527 173 201 209
0.338850 0.338849 0.000000 0.707083 0.707083 0.000000 173 201 209
0.330354 0.330354 0.106633 0.689688 0.689688 0.220527 173 201 209
0.305293 0.305293 0.207919 0.638295 0.638295 0.430280 173 201 209
0.264923 0.264923 0.298780 0.555345 0.555345 0.618976 173 201 209
0.211269 0.211269 0.374658 0.444838 0.444838 0.777306 173 201 209
0.147022 0.147021 0.431749 0.312082 0.312082 0.897305 173 201 209
0.075401 0.075401 0.467191 0.163579 0.163579 0.972869 173 201 209
0.180064 0.103960 -0.431749 0.382244 0.220679 -0.897305 173 201 209
0.092347 0.053317 -0.467191 0.200354 0.115665 -0.972869 173 201 209
0.258751 0.149390 -0.374658 0.544816 0.314554 -0.777306 173 201 209
0.324464 0.187329 -0.298780 0.680166 0.392682 -0.618976 173 201 209
0.373906 0.215875 -0.207919 0.781732 0.451338 -0.430280 173 201 209
0.404599 0.233595 -0.106633 0.844691 0.487686 -0.220527 173 201 209
0.415004 0.239603 0.000000 0.866024 0.499985 0.000000 173 201 209
0.404599 0.233595 0.106633 0.844691 0.487686 0.220527 173 201 209
0.373906 0.215875 0.207919 0.781732 0.451338 0.430280 173 201 209
0.324464 0.187329 0.298780 0.680166 0.392682 0.618976 173 201 209
0.258751 0.149390 0.374658 0.544816 0.314554 0.777306 173 201 209
0.180064 0.103960 0.431749 0.382244 0.220679 0.897305 173 201 209
0.092347 0.053317 0.467191 0.200354 0.115665 0.972869 173 201 209
0.200835 0.053813 -0.431749 0.426344 0.114231 -0.897305 173 201 209
0.103000 0.027599 -0.467191 0.223457 0.059877 -0.972869 173 201 209
0.288599 0.077330 -0.374658 0.607685 0.162816 -0.777306 173 201 209
0.361892 0.096969 -0.298780 0.758629 0.203253 -0.618976 173 201 209
0.417038 0.111745 -0.207919 0.871914 0.233619 -0.430280 173 201 209
0.451272 0.120918 -0.106633 0.942137 0.252419 -0.220527 173 201 209
0.462877 0.124027 0.000000 0.965911 0.258797 0.000000 173 201 209
0.451272 0.120918 0.106633 0.942137 0.252419 0.220527 173 201 209
0.417038 0.111745 0.207919 0.871914 0.233619 0.430280 173 201 209
0.361892 0.096969 0.298780 0.758629 0.203253 0.618976 173 201 209
0.288599 0.077330 0.374658 0.607685 0.162816 0.777306 173 201 209
0.200835 0.053813 0.431749 0.426344 0.114231 0.897305 173 201 209
0.103000 0.027599 0.467191 0.223457 0.059877 0.972869 173 201 209
0.207920 -0.000000 -0.431749 0.441389 0.000000 -0.897305 173 201 209
0.106633 -0.000000 -0.467191 0.231330 0.000000 -0.972869 173 201 209
0.298780 -0.000000 -0.374658 0.629109 0.000000 -0.777306 173 201 209
0.374658 -0.000000 -0.298780 0.785394 0.000000 -0.618976 173 201 209
0.431749 -0.000000 -0.207919 0.902676 0.000000 -0.430280 173 201 209
0.467191 -0.000000 -0.106633 0.975372 0.000000 -0.220527 173 201 209
0.479206 -0.000000 0.000000 1.000000 0.000000 0.000000 173 201 209
0.467191 -0.000000 0.106633 0.975372 0.000000 0.220527 173 201 209
0.431749 -0.000000 0.207919 0.902676 0.000000 0.430280 173 201 209
0.374658 -0.000000 0.298780 0.785394 0.000000 0.618976 173 201 209
0.298780 -0.000000 0.374658 0.629109 0.000000 0.777306 173 201 209
0.207920 -0.000000 0.431749 0.441389 0.000000 0.897305 173 201 209
0.106634 -0.000000 0.467191 0.231330 0.000000 0.972869 173 201 209
0.200835 -0.053814 -0.431749 0.426344 -0.114231 -0.897305 173 201 209
0.103000 -0.027599 -0.467191 0.223457 -0.059877 -0.972869 173 201 209
0.288599 -0.077330 -0.374658 0.607685 -0.162816 -0.777306 173 201 209
0.361892 -0.096969 -0.298780 0.758629 -0.203253 -0.618976 173 201 209
0.417038 -0.111745 -0.207919 0.871914 -0.233619 -0.430280 173 201 209
0.451272 -0.120918 -0.106633 0.942137 -0.252419 -0.220527 173 201 209
0.462877 -0.124028 0.000000 0.965911 -0.258797 0.000000 173 201 209
0.451272 -0.120918 0.106633 0.942137 -0.252419 0.220527 173 201 209
0.417038 -0.111745 0.207919 0.871914 -0.233619 0.430280 173 201 209
0.361892 -0.096969 0.298780 0.758629 -0.203253 0.618976 173 201 209
0.288599 -0.077330 0.374658 0.607685 -0.162816 0.777306 173 201 209
0.200835 -0.053814 0.431749 0.426344 -0.114231 0.897305 173 201 209
0.103000 -0.027599 0.467191 0.223457 -0.059877 0.972869 173 201 209
0.180064 -0.103960 -0.431749 0.382244 -0.220679 -0.897305 173 201 209
0.092347 -0.053317 -0.467191 0.200354 -0.115665 -0.972869 173 201 209
0.258751 -0.149390 -0.374658 0.544816 -0.314554 -0.777306 173 201 209
0.324463 -0.187329 -0.298780 0.680166 -0.392682 -0.618976 173 201 209
0.373906 -0.215875 -0.207919 0.781732 -0.451338 -0.430280 173 201 209
0.404599 -0.233596 -0.106633 0.844691 -0.487686 -0.220527 173 201 209
0.415004 -0.239603 0.000000 0.866024 -0.499985 0.000000 173 201 209
0.404599 -0.233596 0.106633 0.844691 -0.487686 0.220527 173 201 209
0.373906 -0.215875 0.207919 0.781732 -0.451338 0.430280 173 201 209
0.324463 -0.187329 0.298780 0.680166 -0.392682 0.618976 173 201 209
0.258751 -0.149390 0.374658 0.544816 -0.314554 0.777306 173 201 209
0.180064 -0.103960 0.431749 0.382244 -0.220679 0.897305 173 201 209
0.092347 -0.053317 0.467191 0.200354 -0.115665 0.972869 173 201 209
0.147021 -0.147021 -0.431749 0.312082 -0.312082 -0.897305 173 201 209
0.075401 -0.075401 -0.467191 0.163579 -0.163579 -0.972869 173 201 209
0.211269 -0.211269 -0.374658 0.444838 -0.444838 -0.777306 173 201 209
0.264923 -0.264923 -0.298780 0.555345 -0.555345 -0.618976 173 201 209
0.305293 -0.305293 -0.207919 0.638295 -0.638295 -0.430280 173 201 209
0.330354 -0.330354 -0.106633 0.689688 -0.689688 -0.220527 173 201 209
0.338849 -0.338850 0.000000 0.707083 -0.707083 0.000000 173 201 209
0.330354 -0.330354 0.106633 0.689688 -0.689688 0.220527 173 201 209
0.305293 -0.305293 0.207919 0.638295 -0.638295 0.430280 173 201 209
0.264923 -0.264923 0.298780 0.555345 -0.555345 0.618976 173 201 209
0.211269 -0.211269 0.374658 0.444838 -0.444838 0.777306 173 201 209
0.147021 -0.147021 0.431749 0.312082 -0.312082 0.897305 173 201 209
0.075401 -0.075401 0.467191 0.163579 -0.163579 0.972869 173 201 209
0.103960 -0.180064 -0.431749 0.220679 -0.382244 -0.897305 173 201 209
0.053317 -0.092347 -0.467191 0.115665 -0.200354 -0.972869 173 201 209
0.149390 -0.258751 -0.374658 0.314554 -0.544816 -0.777306 173 201 209
0.187329 -0.324463 -0.298780 0.392682 -0.680166 -0.618976 173 201 209
0.215875 -0.373906 -0.207919 0.451338 -0.781732 -0.430280 173 201 209
0.233595 -0.404599 -0.106633 0.487686 -0.844691 -0.220527 173 201 209
0.239603 -0.415004 0.000000 0.499985 -0.866024 0.000000 173 201 209
0.233595 -0.404599 0.106633 0.487686 -0.844691 0.220527 173 201 209
0.215875 -0.373906 0.207919 0.451338 -0.781732 0.430280 173 201 209
0.187329 -0.324463 0.298780 0.392682 -0.680166 0.618976 173 201 209
0.149390 -0.258751 0.374658 0.314554 -0.544816 0.777306 173 201 209
0.103960 -0.180064 0.431749 0.220679 -0.382244 0.897305 173 201 209
0.053317 -0.092347 0.467191 0.115665 -0.200354 0.972869 173 201 209
0.053814 -0.200835 -0.431749 0.114231 -0.426344 -0.897305 173 201 209
0.027599 -0.103000 -0.467191 0.059877 -0.223457 -0.972869 173 201 209
0.077330 -0.288599 -0.374658 0.162816 -0.607685 -0.777306 173 201 209
0.096969 -0.361892 -0.298780 0.203253 -0.758629 -0.618976 173 201 209
0.111745 -0.417038 -0.207919 0.233619 -0.871914 -0.430280 173 201 209
0.120918 -0.451272 -0.106633 0.252419 -0.942137 -0.220527 173 201 209
0.124027 -0.462877 0.000000 0.258797 -0.965911 0.000000 173 201 209
0.120918 -0.451272 0.106633 0.252419 -0.942137 0.220527 173 201 209
0.111745 -0.417038 0.207919 0.233619 -0.871914 0.430280 173 201 209
0.096969 -0.361892 0.298780 0.203253 -0.758629 0.618976 173 201 209
0.077330 -0.288599 0.374658 0.162816 -0.607685 0.777306 173 201 209
0.053814 -0.200835 0.431749 0.114231 -0.426344 0.897305 173 201 209
0.027599 -0.103000 0.467191 0.059877 -0.223457 0.972869 173 201 209
0.000000 -0.207919 -0.431749 0.000000 -0.441389 -0.897305 173 201 209
0.000000 -0.106633 -0.467191 0.000000 -0.231330 -0.972869 173 201 209
-0.000000 -0.298780 -0.374658 0.000000 -0.629109 -0.777306 173 201 209
-0.000000 -0.374658 -0.298780 0.000000 -0.785394 -0.618976 173 201 209
-0.000000 -0.431749 -0.207919 0.000000 -0.902676 -0.430280 173 201 209
-0.000000 -0.467191 -0.106633 0.000000 -0.975372 -0.220527 173 201 209
-0.000000 -0.479205 0.000000 0.000000 -1.000000 0.000000 173 201 209
-0.000000 -0.467191 0.106633 0.000000 -0.975372 0.220527 173 201 209
-0.000000 -0.431749 0.207919 0.000000 -0.902676 0.430280 173 201 209
-0.000000 -0.374658 0.298780 0.000000 -0.785394 0.618976 173 201 209
-0.000000 -0.298780 0.374658 0.000000 -0.629109 0.777306 173 201 209
0.000000 -0.207920 0.431749 0.000000 -0.441389 0.897305 173 201 209
0.000000 -0.106633 0.467191 0.000000 -0.231330 0.972869 173 201 209
-0.053813 -0.200835 -0.431749 -0.114231 -0.426344 -0.897305 173 201 209
-0.027599 -0.103000 -0.467191 -0.059877 -0.223457 -0.972869 173 201 209
-0.077330 -0.288599 -0.374658 -0.162816 -0.607685 -0.777306 173 201 209
-0.096969 -0.361892 -0.298780 -0.203253 -0.758629 -0.618976 173 201 209
-0.111745 -0.417038 -0.207919 -0.233619 -0.871914 -0.430280 173 201 209
-0.120918 -0.451272 -0.106633 -0.252419 -0.942137 -0.220527 173 201 209
-0.124028 -0.462877 0.000000 -0.258797 -0.965911 0.000000 173 201 209
-0.120918 -0.451272 0.106633 -0.252419 -0.942137 0.220527 173 201 209
-0.111745 -0.417038 0.207919 -0.233619 -0.871914 0.430280 173 201 209
-0.096969 -0.361892 0.298780 -0.203253 -0.758629 0.618976 173 201 209
-0.077330 -0.288599 0.374658 -0.162816 -0.607685 0.777306 173 201 209
-0.053813 -0.200835 0.431749 -0.114231 -0.426344 0.897305 173 201 209
-0.027599 -0.103000 0.467191 -0.059877 -0.223457 0.972869 173 201 209
-0.103960 -0.180064 -0.431749 -0.220679 -0.382244 -0.897305 173 201 209
-0.053317 -0.092347 -0.467191 -0.115665 -0.200354 -0.972869 173 201 209
-0.149390 -0.258751 -0.374658 -0.314554 -0.544816 -0.777306 173 201 209
-0.187329 -0.324463 -0.298780 -0.392682 -0.680166 -0.618976 173 201 209
-0.215875 -0.373906 -0.207919 -0.451338 -0.781732 -0.430280 173 201 209
-0.233596 -0.404599 -0.106633 -0.487686 -0.844691 -0.220527 173 201 209
-0.239603 -0.415004 0.000000 -0.499985 -0.866024 0.000000 173 201 209
-0.233596 -0.404599 0.106633 -0.487686 -0.844691 0.220527 173 201 209
-0.215875 -0.373906 0.207919 -0.451338 -0.781732 0.430280 173 201 209
-0.187329 -0.324463 0.298780 -0.392682 -0.680166 0.618976 173 201 209
-0.149390 -0.258751 0.374658 -0.314554 -0.544816 0.777306 173 201 209
-0.103960 -0.180064 0.431749 -0.220679 -0.382244 0.897305 173 201 209
-0.053317 -0.092347 0.467191 -0.115665 -0.200354 0.972869 173 201 209
-0.147021 -0.147021 -0.431749 -0.312082 -0.312082 -0.897305 173 201 209
-0.075401 -0.075401 -0.467191 -0.163579 -0.163579 -0.972869 173 201 209
-0.211269 -0.211269 -0.374658 -0.444838 -0.444838 -0.777306 173 201 209
-0.264923 -0.264923 -0.298780 -0.555345 -0.555345 -0.618976 173 201 209
-0.305293 -0.305293 -0.207919 -0.638295 -0.638295 -0.430280 173 201 209
-0.330354 -0.330353 -0.106633 -0.689688 -0.689688 -0.220527 173 201 209
-0.338849 -0.338849 0.000000 -0.707083 -0.707083 0.000000 173 201 209
-0.330354 -0.330353 0.106633 -0.689688 -0.689688 0.220527 173 201 209
-0.305293 -0.305293 0.207919 -0.638295 -0.638295 0.430280 173 201 209
-0.264923 -0.264923 0.298780 -0.555345 -0.555345 0.618976 173 201 209
-0.211269 -0.211269 0.374658 -0.444838 -0.444838 0.777306 173 201 209
-0.147021 -0.147021 0.431749 -0.312082 -0.312082 0.897305 173 201 209
-0.075401 -0.075401 0.467191 -0.163579 -0.163579 0.972869 173 201 209
-0.180063 -0.103960 -0.431749 -0.382244 -0.220679 -0.897305 173 201 209
-0.092347 -0.053317 -0.467191 -0.200354 -0.115665 -0.972869 173 201 209
-0.258751 -0.149390 -0.374658 -0.544816 -0.314554 -0.777306 173 201 209
-0.324463 -0.187329 -0.298780 -0.680166 -0.392682 -0.618976 173 201 209
-0.373906 -0.215874 -0.207919 -0.781732 -0.451338 -0.430280 173 201 209
-0.404599 -0.233595 -0.106633 -0.844691 -0.487686 -0.220527 173 201 209
-0.415004 -0.239602 0.000000 -0.866024 -0.499985 0.000000 173 201 209
-0.404599 -0.233595 0.106633 -0.844691 -0.487686 0.220527 173 201 209
-0.373906 -0.215874 0.207919 -0.781732 -0.451338 0.430280 173 201 209
-0.324463 -0.187329 0.298780 -0.680166 -0.392682 0.618976 173 201 209
-0.258751 -0.149390 0.374658 -0.544816 -0.314554 0.777306 173 201 209
-0.180064 -0.103960 0.431749 -0.382244 -0.220679 0.897305 173 201 209
-0.092347 -0.053317 0.467191 -0.200354 -0.115665 0.972869 173 201 209
-0.200835 -0.053813 -0.431749 -0.426344 -0.114231 -0.897305 173 201 209
-0.103000 -0.027599 -0.467191 -0.223457 -0.059877 -0.972869 173 201 209
-0.288599 -0.077330 -0.374658 -0.607685 -0.162816 -0.777306 173 201 209
-0.361892 -0.096968 -0.298780 -0.758629 -0.203253 -0.618976 173 201 209
-0.417038 -0.111745 -0.207919 -0.871914 -0.233619 -0.430280 173 201 209
-0.451272 -0.120917 -0.106633 -0.942137 -0.252419 -0.220527 173 201 209
-0.462877 -0.124027 0.000000 -0.965911 -0.258797 0.000000 173 201 209
-0.451272 -0.120917 0.106633 -0.942137 -0.252419 0.220527 173 201 209
-0.417038 -0.111745 0.207919 -0.871914 -0.233619 0.430280 173 201 209
-0.361892 -0.096968 0.298780 -0.758629 -0.203253 0.618976 173 201 209
-0.288599 -0.077330 0.374658 -0.607685 -0.162816 0.777306 173 201 209
-0.200835 -0.053813 0.431749 -0.426344 -0.114231 0.897305 173 201 209
-0.103000 -0.027599 0.467191 -0.223457 -0.059877 0.972869 173 201 209
0.000000 0.000000 -0.479205 0.000000 0.000000 -1.000000 173 201 209
0.000000 -0.000000 0.479205 0.000000 0.000000 1.000000 173 201 209
4 0 1 2 3
4 1 4 5 2
4 4 6 7 5
4 6 8 9 7
4 8 10 11 9
4 10 12 13 11
4 12 14 15 13
4 14 16 17 15
4 16 18 19 17
4 18 20 21 19
4 20 22 23 21
4 22 24 25 23
4 3 2 26 27
4 2 5 28 26
4 5 7 29 28
4 7 9 30 29
4 9 11 31 30
4 11 13 32 31
4 13 15 33 32
4 15 17 34 33
4 17 19 35 34
4 19 21 36 35
4 21 23 37 36
4 23 25 38 37
4 27 26 39 40
4 26 28 41 39
4 28 29 42 41
4 29 30 43 42
4 30 31 44 43
4 31 32 45 44
4 32 33 46 45
4 33 34 47 46
4 34 35 48 47
4 35 36 49 48
4 36 37 50 49
4 37 38 51 50
4 40 39 52 53
4 39 41 54 52
4 41 42 55 54
4 42 43 56 55
4 43 44 57 56
4 44 45 58 57
4 45 46 59 58
4 46 47 60 59
4 47 48 61 60
4 48 49 62 61
4 49 50 63 62
4 50 51 64 63
4 53 52 65 66
4 52 54 67 65
4 54 55 68 67
4 55 56 69 68
4 56 57 70 69
4 57 58 71 70
4 58 59 72 71
4 59 60 73 72
4 60 61 74 73
4 61 62 75 74
4 62 63 76 75
4 63 64 77 76
4 66 65 78 79
4 65 67 80 78
4 67 68 81 80
4 68 69 82 81
4 69 70 83 82
4 70 71 84 83
4 71 72 85 84
4 72 73 86 85
4 73 74 87 86
4 74 75 88 87
4 75 76 89 88
4 76 77 90 89
4 79 78 91 92
4 78 80 93 91
4 80 81 94 93
4 81 82 95 94
4 82 83 96 95
4 83 84 97 96
4 84 85 98 97
4 85 86 99 98
4 86 87 100 99
4 87 88 101 100
4 88 89 102 101
4 89 90 103 102
4 92 91 104 105
4 91 93 106 104
4 93 94 107 106
4 94 95 108 107
4 95 96 109 108
4 96 97 110 109
4 97 98 111 110
4 98 99 112 111
4 99 100 113 112
4 100 101 114 113
4 101 102 115 114
4 102 103 116 115
4 105 104 117 118
4 104 106 119 117
4 106 107 120 119
4 107 108 121 120
4 108 109 122 121
4 109 110 123 122
4 110 111 124 123
4 111 112 125 124
4 112 113 126 125
4 113 114 127 126
4 114 115 128 127
4 115 116 129 128
4 118 117 130 131
4 117 119 132 130
4 119 120 133 132
4 120 121 134 133
4 121 122 135 134
4 122 123 136 135
4 123 124 137 136
4 124 125 138 137
4 125 126 139 138
4 126 127 140 139
4 127 128 141 140
4 128 129 142 141
4 131 130 143 144
4 130 132 145 143
4 132 133 146 145
4 133 134 147 146
4 134 135 148 147
4 135 136 149 148
4 136 137 150 149
4 137 138 151 150
4 138 139 152 151
4 139 140 153 152
4 140 141 154 153
4 141 142 155 154
4 144 143 156 157
4 143 145 158 156
4 145 146 159 158
4 146 147 160 159
4 147 148 161 160
4 148 149 162 161
4 149 150 163 162
4 150 151 164 163
4 151 152 165 164
4 152 153 166 165
4 153 154 167 166
4 154 155 168 167
4 157 156 169 170
4 156 158 171 169
4 158 159 172 171
4 159 160 173 172
4 160 161 174 173
4 161 162 175 174
4 162 163 176 175
4 163 164 177 176
4 164 165 178 177
4 165 166 179 178
4 166 167 180 179
4 167 168 181 180
4 170 169 182 183
4 169 171 184 182
4 171 172 185 184
4 172 173 186 185
4 173 174 187 186
4 174 175 188 187
4 175 176 189 188
4 176 177 190 189
4 177 178 191 190
4 178 179 192 191
4 179 180 193 192
4 180 181 194 193
4 183 182 195 196
4 182 184 197 195
4 184 185 198 197
4 185 186 199 198
4 186 187 200 199
4 187 188 201 200
4 188 189 202 201
4 189 190 203 202
4 190 191 204 203
4 191 192 205 204
4 192 193 206 205
4 193 194 207 206
4 196 195 208 209
4 195 197 210 208
4 197 198 211 210
4 198 199 212 211
4 199 200 213 212
4 200 201 214 213
4 201 202 215 214
4 202 203 216 215
4 203 204 217 216
4 204 205 218 217
4 205 206 219 218
4 206 207 220 219
4 209 208 221 222
4 208 210 223 221
4 210 211 224 223
4 211 212 225 224
4 212 213 226 225
4 213 214 227 226
4 214 215 228 227
4 215 216 229 228
4 216 217 230 229
4 217 218 231 230
4 218 219 232 231
4 219 220 233 232
4 222 221 234 235
4 221 223 236 234
4 223 224 237 236
4 224 225 238 237
4 225 226 239 238
4 226 227 240 239
4 227 228 241 240
4 228 229 242 241
4 229 230 243 242
4 230 231 244 243
4 231 232 245 244
4 232 233 246 245
4 235 234 247 248
4 234 236 249 247
4 236 237 250 249
4 237 238 251 250
4 238 239 252 251
4 239 240 253 252
4 240 241 254 253
4 241 242 255 254
4 242 243 256 255
4 243 244 257 256
4 244 245 258 257
4 245 246 259 258
4 248 247 260 261
4 247 249 262 260
4 249 250 263 262
4 250 251 264 263
4 251 252 265 264
4 252 253 266 265
4 253 254 267 266
4 254 255 268 267
4 255 256 269 268
4 256 257 270 269
4 257 258 271 270
4 258 259 272 271
4 261 260 273 274
4 260 262 275 273
4 262 263 276 275
4 263 264 277 276
4 264 265 278 277
4 265 266 279 278
4 266 267 280 279
4 267 268 281 280
4 268 269 282 281
4 269 270 283 282
4 270 271 284 283
4 271 272 285 284
4 274 273 286 287
4 273 275 288 286
4 275 276 289 288
4 276 277 290 289
4 277 278 291 290
4 278 279 292 291
4 279 280 293 292
4 280 281 294 293
4 281 282 295 294
4 282 283 296 295
4 283 284 297 296
4 284 285 298 297
4 287 286 299 300
4 286 288 301 299
4 288 289 302 301
4 289 290 303 302
4 290 291 304 303
4 291 292 305 304
4 292 293 306 305
4 293 294 307 306
4 294 295 308 307
4 295 296 309 308
4 296 297 310 309
4 297 298 311 310
3 312 0 3
3 24 313 25
3 312 3 27
3 25 313 38
3 312 27 40
3 38 313 51
3 312 40 53
3 51 313 64
3 312 53 66
3 64 313 77
3 312 66 79
3 77 313 90
3 312 79 92
3 90 313 103
3 312 92 105
3 103 313 116
3 312 105 118
3 116 313 129
3 312 118 131
3 129 313 142
3 312 131 144
3 142 313 155
3 312 144 157
3 155 313 168
3 312 157 170
3 168 313 181
3 312 170 183
3 181 313 194
3 312 183 196
3 194 313 207
3 312 196 209
3 207 313 220
3 312 209 222
3 220 313 233
3 312 222 235
3 233 313 246
3 312 235 248
3 246 313 259
3 312 248 261
3 259 313 272
3 312 261 274
3 272 313 285
3 312 274 287
3 285 313 298
3 312 287 300
3 298 313 311
3 312 300 0
4 300 299 1 0
4 299 301 4 1
4 301 302 6 4
4 302 303 8 6
4 303 304 10 8
4 304 305 12 10
4 305 306 14 12
4 306 307 16 14
4 307 308 18 16
4 308 309 20 18
4 309 310 22 20
4 24 22 310 311
3 313 24 311
