ply
format ascii 1.0
comment Created by Blender 2.69 (sub 0) - www.blender.org, source file: 'balancoire.blend'
element vertex 140
property float x
property float y
property float z
property float nx
property float ny
property float nz
property uchar red
property uchar green
property uchar blue
element face 124
property list uchar uint vertex_indices
end_header
-0.010500 -0.010500 -0.000000 -1.000000 -0.000000 0.000000 206 197 150
-0.010500 0.010500 0.000000 -1.000000 -0.000000 0.000000 206 197 150
-0.010500 0.010500 -0.089362 -1.000000 -0.000000 0.000000 206 197 150
-0.010500 -0.010500 -0.089362 -1.000000 -0.000000 0.000000 206 197 150
-0.010500 0.010500 -0.178723 -1.000000 -0.000000 0.000000 206 197 150
-0.010500 -0.010500 -0.178724 -1.000000 -0.000000 0.000000 206 197 150
-0.010500 0.010500 -0.268085 -1.000000 -0.000000 0.000000 206 197 150
-0.010500 -0.010500 -0.268085 -1.000000 -0.000000 0.000000 206 197 150
-0.010500 0.010500 -0.357447 -1.000000 -0.000000 0.000000 206 197 150
-0.010500 -0.010500 -0.357447 -1.000000 -0.000000 0.000000 206 197 150
-0.010500 0.010500 -0.446808 -1.000000 -0.000000 0.000000 206 197 150
-0.010500 -0.010500 -0.446809 -1.000000 -0.000000 0.000000 206 197 150
-0.010500 0.010500 -0.536170 -1.000000 -0.000000 0.000000 206 197 150
-0.010500 -0.010500 -0.536170 -1.000000 -0.000000 0.000000 206 197 150
-0.010500 0.010500 -0.625532 -1.000000 -0.000000 0.000000 206 197 150
-0.010500 -0.010500 -0.625532 -1.000000 -0.000000 0.000000 206 197 150
-0.010500 0.010500 -0.714893 -1.000000 -0.000000 0.000000 206 197 150
-0.010500 -0.010500 -0.714894 -1.000000 -0.000000 0.000000 206 197 150
-0.010500 0.010500 -0.804255 -1.000000 -0.000000 0.000000 206 197 150
-0.010500 -0.010500 -0.804255 -1.000000 -0.000000 0.000000 206 197 150
-0.010500 0.010500 -0.893617 -1.000000 -0.000000 0.000000 206 197 150
-0.010500 -0.010500 -0.893617 -1.000000 -0.000000 0.000000 206 197 150
-0.010500 0.010500 -0.982979 -1.000000 -0.000000 0.000000 206 197 150
-0.010500 -0.010500 -0.982979 -1.000000 -0.000000 0.000000 206 197 150
-0.010500 0.010500 -1.072340 -1.000000 -0.000000 0.000000 206 197 150
-0.010500 -0.010500 -1.072341 -1.000000 -0.000000 0.000000 206 197 150
-0.010500 0.010500 -1.161702 -1.000000 -0.000000 0.000000 206 197 150
-0.010500 -0.010500 -1.161702 -1.000000 -0.000000 0.000000 206 197 150
-0.010500 0.010500 -1.251064 -1.000000 -0.000000 0.000000 206 197 150
-0.010500 -0.010500 -1.251064 -1.000000 -0.000000 0.000000 206 197 150
-0.010500 0.010500 -1.340425 -1.000000 -0.000000 0.000000 206 197 150
-0.010500 0.010500 0.000000 0.000000 1.000000 -0.000000 206 197 150
0.010500 0.010500 0.000000 0.000000 1.000000 -0.000000 206 197 150
0.010500 0.010500 -0.089362 0.000000 1.000000 -0.000000 206 197 150
-0.010500 0.010500 -0.089362 0.000000 1.000000 -0.000000 206 197 150
0.010500 0.010500 -0.178723 0.000000 1.000000 -0.000000 206 197 150
-0.010500 0.010500 -0.178723 0.000000 1.000000 -0.000000 206 197 150
0.010500 0.010500 -0.268085 0.000000 1.000000 -0.000000 206 197 150
-0.010500 0.010500 -0.268085 0.000000 1.000000 -0.000000 206 197 150
0.010500 0.010500 -0.357447 0.000000 1.000000 -0.000000 206 197 150
-0.010500 0.010500 -0.357447 0.000000 1.000000 -0.000000 206 197 150
0.010500 0.010500 -0.446808 0.000000 1.000000 -0.000000 206 197 150
-0.010500 0.010500 -0.446808 0.000000 1.000000 -0.000000 206 197 150
0.010500 0.010500 -0.536170 0.000000 1.000000 -0.000000 206 197 150
-0.010500 0.010500 -0.536170 0.000000 1.000000 -0.000000 206 197 150
0.010500 0.010500 -0.625532 0.000000 1.000000 -0.000000 206 197 150
-0.010500 0.010500 -0.625532 0.000000 1.000000 -0.000000 206 197 150
0.010500 0.010500 -0.714893 0.000000 1.000000 -0.000000 206 197 150
-0.010500 0.010500 -0.714893 0.000000 1.000000 -0.000000 206 197 150
0.010500 0.010500 -0.804255 0.000000 1.000000 -0.000000 206 197 150
-0.010500 0.010500 -0.804255 0.000000 1.000000 -0.000000 206 197 150
0.010500 0.010500 -0.893617 0.000000 1.000000 -0.000000 206 197 150
-0.010500 0.010500 -0.893617 0.000000 1.000000 -0.000000 206 197 150
0.010500 0.010500 -0.982979 0.000000 1.000000 -0.000000 206 197 150
-0.010500 0.010500 -0.982979 0.000000 1.000000 -0.000000 206 197 150
0.010500 0.010500 -1.072340 0.000000 1.000000 -0.000000 206 197 150
-0.010500 0.010500 -1.072340 0.000000 1.000000 -0.000000 206 197 150
0.010500 0.010500 -1.161702 0.000000 1.000000 -0.000000 206 197 150
-0.010500 0.010500 -1.161702 0.000000 1.000000 -0.000000 206 197 150
0.010500 0.010500 -1.251064 0.000000 1.000000 -0.000000 206 197 150
-0.010500 0.010500 -1.251064 0.000000 1.000000 -0.000000 206 197 150
0.010500 0.010500 -1.340425 0.000000 1.000000 -0.000000 206 197 150
0.010500 0.010500 0.000000 1.000000 0.000000 0.000000 206 197 150
0.010500 -0.010500 0.000000 1.000000 0.000000 0.000000 206 197 150
0.010500 -0.010500 -0.089362 1.000000 0.000000 0.000000 206 197 150
0.010500 0.010500 -0.089362 1.000000 0.000000 0.000000 206 197 150
0.010500 -0.010500 -0.178723 1.000000 0.000000 0.000000 206 197 150
0.010500 0.010500 -0.178723 1.000000 0.000000 0.000000 206 197 150
0.010500 -0.010500 -0.268085 1.000000 0.000000 0.000000 206 197 150
0.010500 0.010500 -0.268085 1.000000 0.000000 0.000000 206 197 150
0.010500 -0.010500 -0.357447 1.000000 0.000000 0.000000 206 197 150
0.010500 0.010500 -0.357447 1.000000 0.000000 0.000000 206 197 150
0.010500 -0.010500 -0.446808 1.000000 0.000000 0.000000 206 197 150
0.010500 0.010500 -0.446808 1.000000 0.000000 0.000000 206 197 150
0.010500 -0.010500 -0.536170 1.000000 0.000000 0.000000 206 197 150
0.010500 0.010500 -0.536170 1.000000 0.000000 0.000000 206 197 150
0.010500 -0.010500 -0.625532 1.000000 0.000000 0.000000 206 197 150
0.010500 0.010500 -0.625532 1.000000 0.000000 0.000000 206 197 150
0.010500 -0.010500 -0.714893 1.000000 0.000000 0.000000 206 197 150
0.010500 0.010500 -0.714893 1.000000 0.000000 0.000000 206 197 150
0.010500 -0.010500 -0.804255 1.000000 0.000000 0.000000 206 197 150
0.010500 0.010500 -0.804255 1.000000 0.000000 0.000000 206 197 150
0.010500 -0.010500 -0.893617 1.000000 0.000000 0.000000 206 197 150
0.010500 0.010500 -0.893617 1.000000 0.000000 0.000000 206 197 150
0.010500 -0.010500 -0.982979 1.000000 0.000000 0.000000 206 197 150
0.010500 0.010500 -0.982979 1.000000 0.000000 0.000000 206 197 150
0.010500 -0.010500 -1.072340 1.000000 0.000000 0.000000 206 197 150
0.010500 0.010500 -1.072340 1.000000 0.000000 0.000000 206 197 150
0.010500 -0.010500 -1.161702 1.000000 0.000000 0.000000 206 197 150
0.010500 0.010500 -1.161702 1.000000 0.000000 0.000000 206 197 150
0.010500 -0.010500 -1.251064 1.000000 0.000000 0.000000 206 197 150
0.010500 0.010500 -1.251064 1.000000 0.000000 0.000000 206 197 150
0.010500 -0.010500 -1.340425 1.000000 0.000000 0.000000 206 197 150
0.010500 -0.010500 0.000000 0.000000 -1.000000 0.000000 206 197 150
-0.010500 -0.010500 -0.000000 0.000000 -1.000000 0.000000 206 197 150
0.010500 -0.010500 -0.089362 0.000000 -1.000000 0.000000 206 197 150
-0.010500 -0.010500 -0.089362 0.000000 -1.000000 0.000000 206 197 150
0.010500 -0.010500 -0.178723 0.000000 -1.000000 0.000000 206 197 150
-0.010500 -0.010500 -0.178724 0.000000 -1.000000 0.000000 206 197 150
0.010500 -0.010500 -0.268085 0.000000 -1.000000 0.000000 206 197 150
-0.010500 -0.010500 -0.268085 0.000000 -1.000000 0.000000 206 197 150
0.010500 -0.010500 -0.357447 0.000000 -1.000000 0.000000 206 197 150
-0.010500 -0.010500 -0.357447 0.000000 -1.000000 0.000000 206 197 150
0.010500 -0.010500 -0.446808 0.000000 -1.000000 0.000000 206 197 150
-0.010500 -0.010500 -0.446809 0.000000 -1.000000 0.000000 206 197 150
0.010500 -0.010500 -0.536170 0.000000 -1.000000 0.000000 206 197 150
-0.010500 -0.010500 -0.536170 0.000000 -1.000000 0.000000 206 197 150
0.010500 -0.010500 -0.625532 0.000000 -1.000000 0.000000 206 197 150
-0.010500 -0.010500 -0.625532 0.000000 -1.000000 0.000000 206 197 150
0.010500 -0.010500 -0.714893 0.000000 -1.000000 0.000000 206 197 150
-0.010500 -0.010500 -0.714894 0.000000 -1.000000 0.000000 206 197 150
0.010500 -0.010500 -0.804255 0.000000 -1.000000 0.000000 206 197 150
-0.010500 -0.010500 -0.804255 0.000000 -1.000000 0.000000 206 197 150
0.010500 -0.010500 -0.893617 0.000000 -1.000000 0.000000 206 197 150
-0.010500 -0.010500 -0.893617 0.000000 -1.000000 0.000000 206 197 150
0.010500 -0.010500 -0.982979 0.000000 -1.000000 0.000000 206 197 150
-0.010500 -0.010500 -0.982979 0.000000 -1.000000 0.000000 206 197 150
0.010500 -0.010500 -1.072340 0.000000 -1.000000 0.000000 206 197 150
-0.010500 -0.010500 -1.072341 0.000000 -1.000000 0.000000 206 197 150
0.010500 -0.010500 -1.161702 0.000000 -1.000000 0.000000 206 197 150
-0.010500 -0.010500 -1.161702 0.000000 -1.000000 0.000000 206 197 150
0.010500 -0.010500 -1.251064 0.000000 -1.000000 0.000000 206 197 150
-0.010500 -0.010500 -1.251064 0.000000 -1.000000 0.000000 206 197 150
0.010500 -0.010500 -1.340425 0.000000 -1.000000 0.000000 206 197 150
-0.010500 0.010500 0.000000 -0.000031 -0.000031 1.000000 99 27 0
-0.010500 -0.010500 -0.000000 -0.000031 -0.000031 1.000000 99 27 0
0.010500 -0.010500 0.000000 -0.000031 -0.000031 1.000000 99 27 0
-0.010500 0.010500 -1.340425 0.000000 0.000000 -1.000000 206 197 150
0.010500 0.010500 -1.340425 0.000000 0.000000 -1.000000 206 197 150
0.010500 -0.010500 -1.340425 0.000000 0.000000 -1.000000 206 197 150
-0.010500 -0.010500 -1.340426 -1.000000 -0.000000 -0.000000 206 197 150
-0.010500 0.010500 -1.340425 0.000000 1.000000 0.000000 206 197 150
0.010500 0.010500 -1.340425 1.000000 -0.000000 0.000000 206 197 150
-0.010500 -0.010500 -1.340426 -0.000000 -1.000000 0.000000 206 197 150
0.010500 0.010500 0.000000 0.000000 -0.000000 1.000000 99 27 0
-0.010500 0.010500 0.000000 0.000000 -0.000000 1.000000 99 27 0
0.010500 -0.010500 0.000000 0.000000 -0.000000 1.000000 99 27 0
-0.010500 -0.010500 -1.340426 0.000017 0.000017 -1.000000 206 197 150
-0.010500 0.010500 -1.340425 0.000017 0.000017 -1.000000 206 197 150
0.010500 -0.010500 -1.340425 0.000017 0.000017 -1.000000 206 197 150
3 0 1 2
3 3 2 4
3 5 4 6
3 7 6 8
3 9 8 10
3 11 10 12
3 13 12 14
3 15 14 16
3 17 16 18
3 19 18 20
3 21 20 22
3 23 22 24
3 25 24 26
3 27 26 28
3 29 28 30
3 31 32 33
3 34 33 35
3 36 35 37
3 38 37 39
3 40 39 41
3 42 41 43
3 44 43 45
3 46 45 47
3 48 47 49
3 50 49 51
3 52 51 53
3 54 53 55
3 56 55 57
3 58 57 59
3 60 59 61
3 62 63 64
3 65 64 66
3 67 66 68
3 69 68 70
3 71 70 72
3 73 72 74
3 75 74 76
3 77 76 78
3 79 78 80
3 81 80 82
3 83 82 84
3 85 84 86
3 87 86 88
3 89 88 90
3 91 90 92
3 93 94 95
3 95 96 97
3 97 98 99
3 99 100 101
3 101 102 103
3 103 104 105
3 105 106 107
3 107 108 109
3 109 110 111
3 111 112 113
3 113 114 115
3 115 116 117
3 117 118 119
3 119 120 121
3 121 122 123
3 124 125 126
3 127 128 129
3 3 0 2
3 5 3 4
3 7 5 6
3 9 7 8
3 11 9 10
3 13 11 12
3 15 13 14
3 17 15 16
3 19 17 18
3 21 19 20
3 23 21 22
3 25 23 24
3 27 25 26
3 29 27 28
3 130 29 30
3 34 31 33
3 36 34 35
3 38 36 37
3 40 38 39
3 42 40 41
3 44 42 43
3 46 44 45
3 48 46 47
3 50 48 49
3 52 50 51
3 54 52 53
3 56 54 55
3 58 56 57
3 60 58 59
3 131 60 61
3 65 62 64
3 67 65 66
3 69 67 68
3 71 69 70
3 73 71 72
3 75 73 74
3 77 75 76
3 79 77 78
3 81 79 80
3 83 81 82
3 85 83 84
3 87 85 86
3 89 87 88
3 91 89 90
3 132 91 92
3 94 96 95
3 96 98 97
3 98 100 99
3 100 102 101
3 102 104 103
3 104 106 105
3 106 108 107
3 108 110 109
3 110 112 111
3 112 114 113
3 114 116 115
3 116 118 117
3 118 120 119
3 120 122 121
3 122 133 123
3 134 135 136
3 137 138 139
