ply
format ascii 1.0
comment Created by Blender 2.69 (sub 0) - www.blender.org, source file: 'balancoire.blend'
element vertex 71
property float x
property float y
property float z
property float nx
property float ny
property float nz
property uchar red
property uchar green
property uchar blue
element face 140
property list uchar uint vertex_indices
end_header
0.000000 0.191461 -0.156475 0.000000 1.000000 0.000000 82 80 78
0.000000 0.172501 -0.073403 0.000000 0.900967 0.433882 82 80 78
0.020722 0.158937 -0.079935 0.924650 0.343089 0.165197 82 80 78
0.020722 0.176406 -0.156475 0.924650 0.380779 0.000000 82 80 78
0.012807 0.152047 -0.156475 0.630909 -0.775842 0.000000 82 80 78
0.012807 0.136989 -0.090504 0.630909 -0.698996 -0.336619 82 80 78
-0.012807 0.136989 -0.090504 -0.630909 -0.698996 -0.336619 82 80 78
-0.012807 0.152047 -0.156475 -0.630909 -0.775842 0.000000 82 80 78
-0.020722 0.158937 -0.079935 -0.924650 0.343089 0.165197 82 80 78
-0.020722 0.176406 -0.156475 -0.924650 0.380779 0.000000 82 80 78
0.000000 0.119374 -0.006784 0.000000 0.623463 0.781823 82 80 78
0.020722 0.109988 -0.018555 0.924650 0.237403 0.297708 82 80 78
0.012807 0.094800 -0.037600 0.630909 -0.483718 -0.606586 82 80 78
-0.012807 0.094800 -0.037600 -0.630909 -0.483718 -0.606586 82 80 78
-0.020722 0.109988 -0.018555 -0.924650 0.237403 0.297708 82 80 78
0.000000 0.042604 0.030187 0.000000 0.222510 0.974914 82 80 78
0.020722 0.039254 0.015509 0.924650 0.084719 0.371258 82 80 78
0.012807 0.033834 -0.008240 0.630909 -0.172643 -0.756401 82 80 78
-0.012807 0.033834 -0.008240 -0.630909 -0.172643 -0.756401 82 80 78
-0.020722 0.039254 0.015509 -0.924650 0.084719 0.371258 82 80 78
0.000000 -0.042604 0.030187 0.000000 -0.222510 0.974914 82 80 78
0.020722 -0.039254 0.015509 0.924650 -0.084719 0.371258 82 80 78
0.012807 -0.033834 -0.008240 0.630909 0.172643 -0.756401 82 80 78
-0.012807 -0.033834 -0.008240 -0.630909 0.172643 -0.756401 82 80 78
-0.020722 -0.039254 0.015509 -0.924650 -0.084719 0.371258 82 80 78
0.000000 -0.119374 -0.006784 0.000000 -0.623463 0.781823 82 80 78
0.020722 -0.109988 -0.018555 0.924650 -0.237403 0.297708 82 80 78
0.012807 -0.094800 -0.037600 0.630909 0.483718 -0.606586 82 80 78
-0.012807 -0.094800 -0.037600 -0.630909 0.483718 -0.606586 82 80 78
-0.020722 -0.109988 -0.018555 -0.924650 -0.237403 0.297708 82 80 78
0.000000 -0.172501 -0.073403 0.000000 -0.900967 0.433882 82 80 78
0.020722 -0.158937 -0.079935 0.924650 -0.343089 0.165197 82 80 78
0.012807 -0.136989 -0.090504 0.630909 0.698996 -0.336619 82 80 78
-0.012807 -0.136989 -0.090504 -0.630909 0.698996 -0.336619 82 80 78
-0.020722 -0.158937 -0.079935 -0.924650 -0.343089 0.165197 82 80 78
-0.000000 -0.191461 -0.156475 0.000000 -1.000000 0.000000 82 80 78
0.020722 -0.176406 -0.156475 0.924650 -0.380779 0.000000 82 80 78
0.012807 -0.152047 -0.156475 0.630909 0.775842 0.000000 82 80 78
-0.012807 -0.152047 -0.156475 -0.630909 0.775842 0.000000 82 80 78
-0.020722 -0.176406 -0.156475 -0.924650 -0.380779 0.000000 82 80 78
-0.000000 -0.172501 -0.239547 0.000000 -0.900967 -0.433882 82 80 78
0.020722 -0.158937 -0.233014 0.924650 -0.343089 -0.165197 82 80 78
0.012807 -0.136989 -0.222445 0.630909 0.698996 0.336619 82 80 78
-0.012807 -0.136989 -0.222445 -0.630909 0.698996 0.336619 82 80 78
-0.020722 -0.158937 -0.233014 -0.924650 -0.343089 -0.165197 82 80 78
-0.000000 -0.119374 -0.306165 0.000000 -0.623463 -0.781823 82 80 78
0.020722 -0.109988 -0.294395 0.924650 -0.237403 -0.297708 82 80 78
0.012807 -0.094800 -0.275349 0.630909 0.483718 0.606586 82 80 78
-0.012807 -0.094800 -0.275349 -0.630909 0.483718 0.606586 82 80 78
-0.020722 -0.109988 -0.294395 -0.924650 -0.237403 -0.297708 82 80 78
-0.000000 -0.042604 -0.343136 0.000000 -0.222510 -0.974914 82 80 78
0.020722 -0.039254 -0.328458 0.924650 -0.084719 -0.371258 82 80 78
0.012807 -0.033834 -0.304709 0.630909 0.172643 0.756401 82 80 78
-0.012807 -0.033834 -0.304709 -0.630909 0.172643 0.756401 82 80 78
-0.020722 -0.039254 -0.328458 -0.924650 -0.084719 -0.371258 82 80 78
-0.000000 0.042604 -0.343136 0.000000 0.222510 -0.974914 82 80 78
0.020722 0.039254 -0.328458 0.924650 0.084719 -0.371258 82 80 78
0.012807 0.033834 -0.304709 0.630909 -0.172643 0.756401 82 80 78
-0.012807 0.033834 -0.304709 -0.630909 -0.172643 0.756401 82 80 78
-0.020722 0.039254 -0.328458 -0.924650 0.084719 -0.371258 82 80 78
-0.000000 0.119374 -0.306165 0.000000 0.623463 -0.781823 82 80 78
0.020722 0.109987 -0.294395 0.924650 0.237403 -0.297708 82 80 78
0.012807 0.094799 -0.275350 0.630909 -0.483718 0.606586 82 80 78
-0.012807 0.094799 -0.275350 -0.630909 -0.483718 0.606586 82 80 78
-0.020722 0.109987 -0.294395 -0.924650 0.237403 -0.297708 82 80 78
-0.020722 0.109987 -0.294395 -0.924650 0.237403 -0.297708 83 81 78
-0.000000 0.172501 -0.239547 0.000000 0.900967 -0.433882 82 80 78
0.020722 0.158937 -0.233015 0.924650 0.343089 -0.165197 82 80 78
0.012807 0.136989 -0.222445 0.630909 -0.698996 0.336619 82 80 78
-0.012807 0.136989 -0.222445 -0.630909 -0.698996 0.336619 82 80 78
-0.020722 0.158937 -0.233014 -0.924650 0.343089 -0.165197 82 80 78
3 0 1 2
3 3 2 4
3 4 5 6
3 7 6 8
3 0 9 1
3 1 10 11
3 2 11 12
3 5 12 13
3 6 13 14
3 8 14 10
3 10 15 16
3 11 16 17
3 12 17 18
3 13 18 14
3 14 19 10
3 15 20 21
3 16 21 22
3 17 22 18
3 18 23 24
3 19 24 20
3 20 25 26
3 21 26 27
3 22 27 28
3 23 28 24
3 24 29 20
3 25 30 26
3 26 31 32
3 27 32 28
3 28 33 34
3 29 34 25
3 30 35 36
3 31 36 37
3 32 37 38
3 33 38 34
3 34 39 35
3 35 40 36
3 36 41 42
3 37 42 43
3 38 43 44
3 39 44 40
3 40 45 46
3 41 46 42
3 42 47 48
3 43 48 49
3 44 49 45
3 45 50 51
3 46 51 52
3 47 52 53
3 48 53 49
3 49 54 45
3 50 55 56
3 51 56 57
3 52 57 58
3 53 58 59
3 54 59 50
3 55 60 56
3 56 61 62
3 57 62 58
3 58 63 64
3 59 65 60
3 60 66 67
3 61 67 62
3 62 68 69
3 63 69 64
3 65 70 66
3 66 0 3
3 67 3 4
3 68 4 7
3 69 7 70
3 70 9 66
3 3 0 2
3 62 63 58
3 7 4 6
3 9 7 8
3 30 31 26
3 2 1 11
3 5 2 12
3 6 5 13
3 8 6 14
3 1 8 10
3 11 10 16
3 12 11 17
3 13 12 18
3 32 33 28
3 34 30 25
3 16 15 21
3 17 16 22
3 9 0 66
3 19 18 24
3 15 19 20
3 21 20 26
3 22 21 27
3 23 22 28
3 18 19 14
3 54 50 45
3 22 23 18
3 27 26 32
3 2 5 4
3 29 28 34
3 53 54 49
3 31 30 36
3 32 31 37
3 33 32 38
3 69 70 64
3 30 34 35
3 29 25 20
3 37 36 42
3 38 37 43
3 39 38 44
3 35 39 40
3 41 40 46
3 9 8 1
3 43 42 48
3 44 43 49
3 40 44 45
3 46 45 51
3 47 46 52
3 48 47 53
3 46 47 42
3 7 9 70
3 51 50 56
3 52 51 57
3 53 52 58
3 54 53 59
3 19 15 10
3 59 55 50
3 57 56 62
3 59 58 64
3 55 59 60
3 61 60 67
3 60 61 56
3 63 62 69
3 40 41 36
3 60 64 66
3 67 66 3
3 68 67 4
3 69 68 7
3 28 29 24
3 38 39 34
3 67 68 62
