ply
format ascii 1.0
comment Created by Blender 2.69 (sub 0) - www.blender.org, source file: 'vase.blend'
element vertex 576
property float x
property float y
property float z
property float nx
property float ny
property float nz
element face 336
property list uchar uint vertex_indices
end_header
0.343474 0.829223 0.039265 0.343455 0.829188 -0.440931
0.498648 0.746281 0.039265 0.498642 0.746269 -0.440931
0.450884 0.674797 -0.090978 0.406842 0.608875 -0.680960
0.310574 0.749794 -0.090978 0.280221 0.676565 -0.680960
0.368210 0.888941 0.223993 0.369427 0.891873 -0.260903
0.187711 0.943695 0.223993 0.188330 0.946806 -0.260903
0.194072 0.975675 0.390268 0.192724 0.968993 -0.154454
0.380688 0.919066 0.390268 0.378063 0.912778 -0.154454
0.534559 0.800026 0.223993 0.536302 0.802667 -0.260903
0.498649 -0.746280 0.039265 0.498642 -0.746269 -0.440931
0.534560 -0.800025 0.223993 0.536302 -0.802667 -0.260903
0.368212 -0.888940 0.223993 0.369427 -0.891873 -0.260903
0.343475 -0.829222 0.039265 0.343455 -0.829188 -0.440931
-0.880298 0.175102 0.039265 -0.880276 0.175085 -0.440931
-0.897544 0.000000 0.039265 -0.897519 0.000000 -0.440931
-0.962182 0.000000 0.223993 -0.965361 0.000000 -0.260903
-0.943694 0.187713 0.223993 -0.946806 0.188330 -0.260903
0.634658 0.634660 0.039265 0.634632 0.634632 -0.440931
0.680365 0.680367 0.223993 0.682607 0.682607 -0.260903
0.800025 0.534561 0.223993 0.802667 0.536302 -0.260903
0.746280 0.498649 0.039265 0.746269 0.498642 -0.440931
0.175102 -0.880298 0.039265 0.175085 -0.880276 -0.440931
0.187713 -0.943694 0.223993 0.188330 -0.946806 -0.260903
0.000000 -0.962182 0.223993 0.000000 -0.965361 -0.260903
0.000000 -0.897544 0.039265 0.000000 -0.897519 -0.440931
-0.746280 0.498648 0.039265 -0.746269 0.498642 -0.440931
-0.829222 0.343475 0.039265 -0.829188 0.343455 -0.440931
-0.888941 0.368211 0.223993 -0.891873 0.369427 -0.260903
-0.800026 0.534560 0.223993 -0.802667 0.536302 -0.260903
0.829222 0.343476 0.039265 0.829188 0.343455 -0.440931
0.888940 0.368212 0.223993 0.891873 0.369427 -0.260903
0.943694 0.187713 0.223993 0.946806 0.188330 -0.260903
0.880297 0.175103 0.039265 0.880276 0.175085 -0.440931
-0.634659 0.634659 0.039265 -0.634632 0.634632 -0.440931
-0.680366 0.680366 0.223993 -0.682607 0.682607 -0.260903
-0.534560 0.800025 0.223993 -0.536302 0.802667 -0.260903
-0.498649 0.746280 0.039265 -0.498642 0.746269 -0.440931
-0.343475 -0.829222 0.039265 -0.343455 -0.829188 -0.440931
-0.175102 -0.880298 0.039265 -0.175085 -0.880276 -0.440931
-0.187712 -0.943694 0.223993 -0.188330 -0.946806 -0.260903
-0.368211 -0.888941 0.223993 -0.369427 -0.891873 -0.260903
0.880298 -0.175101 0.039265 0.880276 -0.175085 -0.440931
0.897544 0.000001 0.039265 0.897519 0.000000 -0.440931
0.962182 0.000001 0.223993 0.965361 0.000000 -0.260903
0.943695 -0.187712 0.223993 0.946806 -0.188330 -0.260903
-0.343475 0.829222 0.039265 -0.343455 0.829188 -0.440931
-0.368211 0.888941 0.223993 -0.369427 0.891873 -0.260903
-0.187712 0.943694 0.223993 -0.188330 0.946806 -0.260903
-0.175102 0.880298 0.039265 -0.175085 0.880276 -0.440931
-0.634659 -0.634659 0.039265 -0.634632 -0.634632 -0.440931
-0.498648 -0.746280 0.039265 -0.498642 -0.746269 -0.440931
-0.534560 -0.800026 0.223993 -0.536302 -0.802667 -0.260903
-0.680366 -0.680366 0.223993 -0.682607 -0.682607 -0.260903
0.746281 -0.498648 0.039265 0.746269 -0.498642 -0.440931
0.829223 -0.343474 0.039265 0.829188 -0.343455 -0.440931
0.888941 -0.368211 0.223993 0.891873 -0.369427 -0.260903
0.800026 -0.534559 0.223993 0.802667 -0.536302 -0.260903
-0.746280 -0.498648 0.039265 -0.746269 -0.498642 -0.440931
-0.800026 -0.534560 0.223993 -0.802667 -0.536302 -0.260903
-0.888941 -0.368211 0.223993 -0.891873 -0.369427 -0.260903
-0.829222 -0.343475 0.039265 -0.829188 -0.343455 -0.440931
0.175101 0.880298 0.039265 0.175085 0.880276 -0.440931
0.634660 -0.634659 0.039265 0.634632 -0.634632 -0.440931
0.680366 -0.680365 0.223993 0.682607 -0.682607 -0.260903
-0.880298 -0.175102 0.039265 -0.880276 -0.175085 -0.440931
-0.943694 -0.187712 0.223993 -0.946806 -0.188330 -0.260903
0.000000 0.962182 0.223993 0.000000 0.965361 -0.260903
0.000000 0.897544 0.039265 0.000000 0.897519 -0.440931
0.827138 -0.552675 0.390268 0.821467 -0.548875 -0.154454
0.919066 -0.380689 0.390268 0.912778 -0.378063 -0.154454
0.935434 -0.387468 0.540664 0.922300 -0.382000 -0.058351
0.841868 -0.562517 0.540664 0.830042 -0.554613 -0.058351
0.703423 -0.703422 0.390268 0.698599 -0.698599 -0.154454
0.552676 -0.827137 0.390268 0.548875 -0.821467 -0.154454
-0.975675 -0.194074 0.390268 -0.968993 -0.192724 -0.154454
-0.994790 0.000000 0.390268 -0.987976 0.000000 -0.154454
0.552674 0.827138 0.390268 0.548875 0.821467 -0.154454
0.703422 0.703423 0.390268 0.698599 0.698599 -0.154454
0.380690 -0.919065 0.390268 0.378063 -0.912778 -0.154454
0.194074 -0.975675 0.390268 0.192724 -0.968993 -0.154454
-0.975675 0.194074 0.390268 -0.968993 0.192724 -0.154454
-0.919066 0.380689 0.390268 -0.912778 0.378063 -0.154454
0.827137 0.552676 0.390268 0.821467 0.548875 -0.154454
0.919065 0.380690 0.390268 0.912778 0.378063 -0.154454
-0.827137 0.552675 0.390268 -0.821467 0.548875 -0.154454
-0.703422 0.703422 0.390268 -0.698599 0.698599 -0.154454
0.000000 -0.994790 0.390268 0.000000 -0.987976 -0.154454
-0.194074 -0.975675 0.390268 -0.192724 -0.968993 -0.154454
0.975675 0.194075 0.390268 0.968993 0.192724 -0.154454
0.994790 0.000001 0.390268 0.987976 0.000000 -0.154454
-0.552675 0.827137 0.390268 -0.548875 0.821467 -0.154454
-0.380690 0.919066 0.390268 -0.378063 0.912778 -0.154454
-0.380689 -0.919066 0.390268 -0.378063 -0.912778 -0.154454
-0.552675 -0.827137 0.390268 -0.548875 -0.821467 -0.154454
0.975675 -0.194073 0.390268 0.968993 -0.192724 -0.154454
-0.194074 0.975675 0.390268 -0.192724 0.968993 -0.154454
0.000000 0.994789 0.390268 0.000000 0.987976 -0.154454
-0.703422 -0.703422 0.390268 -0.698599 -0.698599 -0.154454
-0.827137 -0.552675 0.390268 -0.821467 -0.548875 -0.154454
-0.919066 -0.380689 0.390268 -0.912778 -0.378063 -0.154454
1.012506 0.000001 0.540664 0.998291 0.000000 -0.058351
1.012506 0.000001 0.676004 0.998779 0.000000 0.048952
0.993051 -0.197529 0.676004 0.979583 -0.194830 0.048952
0.993051 -0.197529 0.540664 0.979095 -0.194739 -0.058351
-0.841868 -0.562518 0.540664 -0.830042 -0.554613 -0.058351
-0.935433 -0.387469 0.540664 -0.922300 -0.382000 -0.058351
0.197529 0.993051 0.540664 0.194739 0.979095 -0.058351
0.387468 0.935434 0.540664 0.382000 0.922300 -0.058351
0.715950 -0.715949 0.540664 0.705893 -0.705893 -0.058351
0.562519 -0.841867 0.540664 0.554613 -0.830042 -0.058351
-0.993051 -0.197530 0.540664 -0.979095 -0.194739 -0.058351
-1.012506 0.000000 0.540664 -0.998291 0.000000 -0.058351
0.562517 0.841868 0.540664 0.554613 0.830042 -0.058351
0.715949 0.715950 0.540664 0.705893 0.705893 -0.058351
0.387470 -0.935433 0.540664 0.382031 -0.922300 -0.058351
0.197530 -0.993051 0.540664 0.194739 -0.979095 -0.058351
-0.993051 0.197530 0.540664 -0.979095 0.194739 -0.058351
-0.935433 0.387469 0.540664 -0.922300 0.382000 -0.058351
0.841867 0.562519 0.540664 0.830042 0.554613 -0.058351
0.935433 0.387470 0.540664 0.922300 0.382031 -0.058351
-0.841868 0.562518 0.540664 -0.830042 0.554613 -0.058351
-0.715950 0.715950 0.540664 -0.705893 0.705893 -0.058351
0.000000 -1.012506 0.540664 0.000000 -0.998291 -0.058382
-0.197530 -0.993051 0.540664 -0.194739 -0.979095 -0.058351
0.993050 0.197531 0.540664 0.979095 0.194739 -0.058351
-0.562518 0.841868 0.540664 -0.554613 0.830042 -0.058351
-0.387469 0.935433 0.540664 -0.382000 0.922300 -0.058351
-0.387469 -0.935433 0.540664 -0.382000 -0.922300 -0.058351
-0.562518 -0.841868 0.540664 -0.554613 -0.830042 -0.058351
-0.197530 0.993051 0.540664 -0.194739 0.979095 -0.058351
0.000000 1.012506 0.540664 0.000000 0.998291 -0.058351
-0.715950 -0.715950 0.540664 -0.705893 -0.705893 -0.058351
0.993050 0.197531 0.676004 0.979583 0.194830 0.048952
0.935433 0.387470 0.676004 0.922758 0.382214 0.048952
0.922173 0.381978 0.821552 0.915494 0.379192 0.134404
0.978974 0.194731 0.821552 0.971862 0.193304 0.134404
-0.387469 0.935433 0.676004 -0.382214 0.922758 0.048952
-0.197530 0.993051 0.676004 -0.194830 0.979583 0.048952
-0.562518 -0.841868 0.676004 -0.554888 -0.830470 0.048952
-0.715950 -0.715950 0.676004 -0.706229 -0.706229 0.048952
0.935434 -0.387468 0.676004 0.922758 -0.382214 0.048952
0.841868 -0.562517 0.676004 0.830470 -0.554888 0.048952
-0.841868 -0.562518 0.676004 -0.830470 -0.554888 0.048952
-0.935433 -0.387469 0.676004 -0.922758 -0.382214 0.048952
0.197529 0.993051 0.676004 0.194830 0.979583 0.048952
0.387468 0.935434 0.676004 0.382214 0.922758 0.048952
0.715950 -0.715949 0.676004 0.706229 -0.706229 0.048952
0.562519 -0.841867 0.676004 0.554888 -0.830470 0.048952
-0.993051 -0.197530 0.676004 -0.979583 -0.194830 0.048952
-1.012506 0.000000 0.676004 -0.998779 0.000000 0.048952
0.562517 0.841868 0.676004 0.554888 0.830470 0.048952
0.715949 0.715950 0.676004 0.706229 0.706229 0.048952
0.387470 -0.935433 0.676004 0.382214 -0.922758 0.048952
0.197530 -0.993051 0.676004 0.194830 -0.979583 0.048952
-0.993051 0.197530 0.676004 -0.979583 0.194830 0.048952
-0.935433 0.387469 0.676004 -0.922758 0.382214 0.048952
0.841867 0.562519 0.676004 0.830470 0.554888 0.048952
-0.841868 0.562518 0.676004 -0.830470 0.554888 0.048952
-0.715950 0.715950 0.676004 -0.706229 0.706229 0.048952
0.000000 -1.012506 0.676004 0.000000 -0.998779 0.048952
-0.197530 -0.993051 0.676004 -0.194830 -0.979583 0.048952
-0.562518 0.841868 0.676004 -0.554888 0.830470 0.048952
-0.387469 -0.935433 0.676004 -0.382214 -0.922758 0.048952
0.000000 1.012506 0.676004 0.000000 0.998779 0.048952
0.829933 0.554545 0.821552 0.823908 0.550523 0.134404
0.705800 0.705802 0.821552 0.700674 0.700674 0.134404
0.685847 0.685849 0.984014 0.684408 0.684408 0.251259
0.806472 0.538869 0.984014 0.804773 0.537736 0.251259
-0.705801 0.705801 0.821552 -0.700674 0.700674 0.134404
-0.554544 0.829934 0.821552 -0.550523 0.823908 0.134404
-0.194730 -0.978974 0.821552 -0.193304 -0.971862 0.134404
-0.381976 -0.922173 0.821552 -0.379192 -0.915494 0.134404
0.998153 0.000001 0.821552 0.990905 0.000000 0.134404
0.978974 -0.194729 0.821552 0.971862 -0.193304 0.134404
-0.381977 0.922173 0.821552 -0.379192 0.915494 0.134404
-0.194730 0.978974 0.821552 -0.193304 0.971862 0.134404
-0.554544 -0.829934 0.821552 -0.550523 -0.823908 0.134404
-0.705801 -0.705801 0.821552 -0.700674 -0.700674 0.134404
0.922173 -0.381976 0.821552 0.915494 -0.379192 0.134404
0.829934 -0.554543 0.821552 0.823908 -0.550523 0.134404
-0.829934 -0.554544 0.821552 -0.823908 -0.550523 0.134404
-0.922173 -0.381976 0.821552 -0.915494 -0.379192 0.134404
0.194728 0.978974 0.821552 0.193304 0.971862 0.134404
0.381975 0.922174 0.821552 0.379192 0.915494 0.134404
0.705801 -0.705800 0.821552 0.700674 -0.700674 0.134404
0.554545 -0.829934 0.821552 0.550523 -0.823908 0.134404
-0.978974 -0.194730 0.821552 -0.971862 -0.193304 0.134404
-0.998153 0.000000 0.821552 -0.990905 0.000000 0.134404
0.554543 0.829935 0.821552 0.550523 0.823908 0.134404
0.381977 -0.922173 0.821552 0.379192 -0.915494 0.134404
0.194730 -0.978974 0.821552 0.193304 -0.971862 0.134404
-0.978974 0.194730 0.821552 -0.971862 0.193304 0.134404
-0.922173 0.381977 0.821552 -0.915494 0.379192 0.134404
-0.829934 0.554544 0.821552 -0.823908 0.550523 0.134404
0.000000 -0.998153 0.821552 0.000000 -0.990905 0.134404
0.000000 0.998153 0.821552 0.000000 0.990905 0.134404
0.371177 0.896105 0.984014 0.444861 0.832279 0.330773
0.349775 0.844436 1.142804 0.444861 0.832279 0.330773
0.507796 0.759973 1.142804 0.444861 0.832279 0.330773
0.538866 0.806473 0.984014 0.444861 0.832279 0.330773
0.189226 -0.951299 0.984014 0.188818 -0.949309 0.251259
0.000000 -0.969936 0.984014 0.000000 -0.967895 0.251259
-0.896104 0.371178 0.984014 -0.894223 0.370403 0.251259
-0.806472 0.538867 0.984014 -0.804773 0.537736 0.251259
0.896104 0.371179 0.984014 0.894223 0.370403 0.251259
0.951299 0.189226 0.984014 0.949309 0.188818 0.251259
-0.685848 0.685848 0.984014 -0.684408 0.684408 0.251259
-0.538868 0.806472 0.984014 -0.537736 0.804773 0.251259
-0.189225 -0.951299 0.984014 -0.188818 -0.949309 0.251259
-0.371178 -0.896104 0.984014 -0.370403 -0.894223 0.251259
0.969936 0.000001 0.984014 0.967895 0.000000 0.251259
0.951299 -0.189224 0.984014 0.949309 -0.188818 0.251259
-0.371178 0.896104 0.984014 -0.370403 0.894223 0.251259
-0.189225 0.951299 0.984014 -0.188818 0.949309 0.251259
-0.538867 -0.806472 0.984014 -0.537736 -0.804773 0.251259
-0.685848 -0.685848 0.984014 -0.684408 -0.684408 0.251259
0.896104 -0.371178 0.984014 0.894223 -0.370403 0.251259
0.806473 -0.538867 0.984014 0.804773 -0.537736 0.251259
-0.806472 -0.538868 0.984014 -0.804773 -0.537736 0.251259
-0.896104 -0.371178 0.984014 -0.894223 -0.370403 0.251259
0.189224 0.951299 0.984014 0.188818 0.949309 0.251259
0.371177 0.896105 0.984014 0.370403 0.894223 0.251259
0.685849 -0.685848 0.984014 0.684408 -0.684408 0.251259
0.538868 -0.806472 0.984014 0.537736 -0.804773 0.251259
-0.951299 -0.189225 0.984014 -0.949309 -0.188818 0.251259
-0.969936 0.000000 0.984014 -0.967895 0.000000 0.251259
0.538866 0.806473 0.984014 0.537736 0.804773 0.251259
0.371179 -0.896104 0.984014 0.370403 -0.894223 0.251259
-0.951299 0.189225 0.984014 -0.949309 0.188818 0.251259
0.000000 0.969936 0.984014 0.000000 0.967895 0.251259
0.371179 -0.896104 0.984014 0.444862 -0.832278 0.330773
0.538868 -0.806472 0.984014 0.444862 -0.832278 0.330773
0.507797 -0.759972 1.142804 0.444862 -0.832278 0.330773
0.349777 -0.844435 1.142804 0.444862 -0.832278 0.330773
-0.969936 0.000000 0.984014 -0.939166 0.092500 0.330773
-0.914011 0.000000 1.142804 -0.939166 0.092500 0.330773
-0.896448 0.178315 1.142804 -0.939166 0.092500 0.330773
-0.951299 0.189225 0.984014 -0.939166 0.092500 0.330773
0.806472 0.538869 0.984014 0.729497 0.598685 0.330773
0.685847 0.685849 0.984014 0.729497 0.598685 0.330773
0.646302 0.646304 1.142804 0.729497 0.598685 0.330773
0.759971 0.507798 1.142804 0.729497 0.598685 0.330773
0.000000 -0.969936 0.984014 0.092500 -0.939166 0.330773
0.189226 -0.951299 0.984014 0.092500 -0.939166 0.330773
0.178315 -0.896448 1.142804 0.092500 -0.939166 0.330773
0.000000 -0.914011 1.142804 0.092500 -0.939166 0.330773
-0.896104 0.371178 0.984014 -0.832278 0.444862 0.330773
-0.844436 0.349777 1.142804 -0.832278 0.444862 0.330773
-0.759972 0.507797 1.142804 -0.832278 0.444862 0.330773
-0.806472 0.538867 0.984014 -0.832278 0.444862 0.330773
0.951299 0.189226 0.984014 0.903074 0.273946 0.330773
0.896104 0.371179 0.984014 0.903074 0.273946 0.330773
0.844435 0.349778 1.142804 0.903074 0.273946 0.330773
0.896448 0.178316 1.142804 0.903074 0.273946 0.330773
-0.538868 0.806472 0.984014 -0.598683 0.729498 0.330773
-0.685848 0.685848 0.984014 -0.598683 0.729498 0.330773
-0.646303 0.646303 1.142804 -0.598683 0.729498 0.330773
-0.507797 0.759972 1.142804 -0.598683 0.729498 0.330773
-0.189225 -0.951299 0.984014 -0.273944 -0.903075 0.330773
-0.178314 -0.896448 1.142804 -0.273944 -0.903075 0.330773
-0.349776 -0.844436 1.142804 -0.273944 -0.903075 0.330773
-0.371178 -0.896104 0.984014 -0.273944 -0.903075 0.330773
0.969936 0.000001 0.984014 0.939166 -0.092499 0.330773
0.914011 0.000001 1.142804 0.939166 -0.092499 0.330773
0.896448 -0.178314 1.142804 0.939166 -0.092499 0.330773
0.951299 -0.189224 0.984014 0.939166 -0.092499 0.330773
-0.189225 0.951299 0.984014 -0.273945 0.903075 0.330773
-0.371178 0.896104 0.984014 -0.273945 0.903075 0.330773
-0.349777 0.844436 1.142804 -0.273945 0.903075 0.330773
-0.178315 0.896448 1.142804 -0.273945 0.903075 0.330773
-0.538867 -0.806472 0.984014 -0.598683 -0.729498 0.330773
-0.507797 -0.759972 1.142804 -0.598683 -0.729498 0.330773
-0.646303 -0.646303 1.142804 -0.598683 -0.729498 0.330773
-0.685848 -0.685848 0.984014 -0.598683 -0.729498 0.330773
0.896104 -0.371178 0.984014 0.832278 -0.444861 0.330773
0.844436 -0.349776 1.142804 0.832278 -0.444861 0.330773
0.759972 -0.507796 1.142804 0.832278 -0.444861 0.330773
0.806473 -0.538867 0.984014 0.832278 -0.444861 0.330773
-0.896104 -0.371178 0.984014 -0.832278 -0.444862 0.330773
-0.806472 -0.538868 0.984014 -0.832278 -0.444862 0.330773
-0.759972 -0.507797 1.142804 -0.832278 -0.444862 0.330773
-0.844436 -0.349776 1.142804 -0.832278 -0.444862 0.330773
0.189224 0.951299 0.984014 0.273943 0.903075 0.330773
0.178313 0.896448 1.142804 0.273943 0.903075 0.330773
0.349775 0.844436 1.142804 0.273943 0.903075 0.330773
0.371177 0.896105 0.984014 0.273943 0.903075 0.330773
0.538868 -0.806472 0.984014 0.598684 -0.729498 0.330773
0.685849 -0.685848 0.984014 0.598684 -0.729498 0.330773
0.646303 -0.646303 1.142804 0.598684 -0.729498 0.330773
0.507797 -0.759972 1.142804 0.598684 -0.729498 0.330773
-0.969936 0.000000 0.984014 -0.939166 -0.092500 0.330773
-0.951299 -0.189225 0.984014 -0.939166 -0.092500 0.330773
-0.896448 -0.178314 1.142804 -0.939166 -0.092500 0.330773
-0.914011 0.000000 1.142804 -0.939166 -0.092500 0.330773
0.538866 0.806473 0.984014 0.598683 0.729499 0.330773
0.507796 0.759973 1.142804 0.598683 0.729499 0.330773
0.646302 0.646304 1.142804 0.598683 0.729499 0.330773
0.685847 0.685849 0.984014 0.598683 0.729499 0.330773
0.189226 -0.951299 0.984014 0.273945 -0.903074 0.330773
0.371179 -0.896104 0.984014 0.273945 -0.903074 0.330773
0.349777 -0.844435 1.142804 0.273945 -0.903074 0.330773
0.178315 -0.896448 1.142804 0.273945 -0.903074 0.330773
-0.951299 0.189225 0.984014 -0.903074 0.273945 0.330773
-0.896448 0.178315 1.142804 -0.903074 0.273945 0.330773
-0.844436 0.349777 1.142804 -0.903074 0.273945 0.330773
-0.896104 0.371178 0.984014 -0.903074 0.273945 0.330773
0.896104 0.371179 0.984014 0.832278 0.444863 0.330773
0.806472 0.538869 0.984014 0.832278 0.444863 0.330773
0.759971 0.507798 1.142804 0.832278 0.444863 0.330773
0.844435 0.349778 1.142804 0.832278 0.444863 0.330773
-0.806472 0.538867 0.984014 -0.729498 0.598683 0.330773
-0.759972 0.507797 1.142804 -0.729498 0.598683 0.330773
-0.646303 0.646303 1.142804 -0.729498 0.598683 0.330773
-0.685848 0.685848 0.984014 -0.729498 0.598683 0.330773
0.000000 -0.969936 0.984014 -0.092500 -0.939166 0.330773
0.000000 -0.914011 1.142804 -0.092500 -0.939166 0.330773
-0.178314 -0.896448 1.142804 -0.092500 -0.939166 0.330773
-0.189225 -0.951299 0.984014 -0.092500 -0.939166 0.330773
0.969936 0.000001 0.984014 0.939166 0.092501 0.330773
0.951299 0.189226 0.984014 0.939166 0.092501 0.330773
0.896448 0.178316 1.142804 0.939166 0.092501 0.330773
0.914011 0.000001 1.142804 0.939166 0.092501 0.330773
-0.371178 0.896104 0.984014 -0.444862 0.832278 0.330773
-0.538868 0.806472 0.984014 -0.444862 0.832278 0.330773
-0.507797 0.759972 1.142804 -0.444862 0.832278 0.330773
-0.349777 0.844436 1.142804 -0.444862 0.832278 0.330773
-0.371178 -0.896104 0.984014 -0.444862 -0.832278 0.330773
-0.349776 -0.844436 1.142804 -0.444862 -0.832278 0.330773
-0.507797 -0.759972 1.142804 -0.444862 -0.832278 0.330773
-0.538867 -0.806472 0.984014 -0.444862 -0.832278 0.330773
0.951299 -0.189224 0.984014 0.903075 -0.273944 0.330773
0.896448 -0.178314 1.142804 0.903075 -0.273944 0.330773
0.844436 -0.349776 1.142804 0.903075 -0.273944 0.330773
0.896104 -0.371178 0.984014 0.903075 -0.273944 0.330773
0.000000 0.969936 0.984014 -0.092499 0.939166 0.330773
-0.189225 0.951299 0.984014 -0.092499 0.939166 0.330773
-0.178315 0.896448 1.142804 -0.092499 0.939166 0.330773
-0.000000 0.914010 1.142804 -0.092499 0.939166 0.330773
-0.806472 -0.538868 0.984014 -0.729498 -0.598683 0.330773
-0.685848 -0.685848 0.984014 -0.729498 -0.598683 0.330773
-0.646303 -0.646303 1.142804 -0.729498 -0.598683 0.330773
-0.759972 -0.507797 1.142804 -0.729498 -0.598683 0.330773
0.000000 0.969936 0.984014 0.092498 0.939166 0.330773
-0.000000 0.914010 1.142804 0.092498 0.939166 0.330773
0.178313 0.896448 1.142804 0.092498 0.939166 0.330773
0.189224 0.951299 0.984014 0.092498 0.939166 0.330773
0.806473 -0.538867 0.984014 0.729499 -0.598683 0.330773
0.759972 -0.507796 1.142804 0.729499 -0.598683 0.330773
0.646303 -0.646303 1.142804 0.729499 -0.598683 0.330773
0.685849 -0.685848 0.984014 0.729499 -0.598683 0.330773
-0.951299 -0.189225 0.984014 -0.903075 -0.273945 0.330773
-0.896104 -0.371178 0.984014 -0.903075 -0.273945 0.330773
-0.844436 -0.349776 1.142804 -0.903075 -0.273945 0.330773
-0.896448 -0.178314 1.142804 -0.903075 -0.273945 0.330773
0.178313 0.896448 1.142804 -0.000000 0.000000 1.000000
-0.000000 0.914010 1.142804 -0.000000 0.000000 1.000000
-0.178315 0.896448 1.142804 -0.000000 0.000000 1.000000
0.349775 0.844436 1.142804 -0.000000 0.000000 1.000000
-0.349777 0.844436 1.142804 -0.000000 0.000000 1.000000
0.507796 0.759973 1.142804 -0.000000 0.000000 1.000000
-0.507797 0.759972 1.142804 -0.000000 0.000000 1.000000
0.646302 0.646304 1.142804 -0.000000 0.000000 1.000000
-0.646303 0.646303 1.142804 -0.000000 0.000000 1.000000
0.759971 0.507798 1.142804 -0.000000 0.000000 1.000000
-0.759972 0.507797 1.142804 -0.000000 0.000000 1.000000
0.844435 0.349778 1.142804 -0.000000 0.000000 1.000000
-0.844436 0.349777 1.142804 -0.000000 0.000000 1.000000
0.896448 0.178316 1.142804 -0.000000 0.000000 1.000000
-0.896448 0.178315 1.142804 -0.000000 0.000000 1.000000
0.914011 0.000001 1.142804 -0.000000 0.000000 1.000000
-0.914011 0.000000 1.142804 -0.000000 0.000000 1.000000
0.896448 -0.178314 1.142804 -0.000000 0.000000 1.000000
-0.896448 -0.178314 1.142804 -0.000000 -0.000000 1.000000
0.844436 -0.349776 1.142804 -0.000000 0.000000 1.000000
-0.844436 -0.349776 1.142804 -0.000000 -0.000000 1.000000
0.759972 -0.507796 1.142804 0.000000 -0.000000 1.000000
-0.759972 -0.507797 1.142804 0.000000 0.000000 1.000000
0.646303 -0.646303 1.142804 0.000000 0.000000 1.000000
-0.646303 -0.646303 1.142804 0.000000 0.000000 1.000000
0.507797 -0.759972 1.142804 0.000000 0.000000 1.000000
-0.507797 -0.759972 1.142804 0.000000 0.000000 1.000000
0.349777 -0.844435 1.142804 0.000000 0.000000 1.000000
-0.349776 -0.844436 1.142804 0.000000 0.000000 1.000000
0.178315 -0.896448 1.142804 0.000000 0.000000 1.000000
-0.178314 -0.896448 1.142804 0.000000 0.000000 1.000000
0.000000 -0.914011 1.142804 0.000000 0.000000 1.000000
0.386207 0.578002 -0.177925 0.380794 0.464000 -0.799812
0.450884 0.674797 -0.090978 0.380794 0.464000 -0.799812
0.573867 0.573868 -0.090978 0.380794 0.464000 -0.799812
0.491549 0.491550 -0.177925 0.380794 0.464000 -0.799812
0.310575 -0.749794 -0.090978 0.280221 -0.676565 -0.680960
0.450885 -0.674796 -0.090978 0.406842 -0.608875 -0.680960
-0.795977 0.158330 -0.090978 -0.718223 0.142857 -0.680960
-0.811571 0.000000 -0.090978 -0.732292 0.000000 -0.680960
0.674796 0.450886 -0.090978 0.608875 0.406842 -0.680960
0.573867 0.573868 -0.090978 0.517808 0.517808 -0.680960
0.000000 -0.811571 -0.090978 0.000000 -0.732292 -0.680960
0.158330 -0.795977 -0.090978 0.142857 -0.718223 -0.680960
-0.674797 0.450885 -0.090978 -0.608875 0.406842 -0.680960
-0.749794 0.310575 -0.090978 -0.676565 0.280221 -0.680960
0.795977 0.158331 -0.090978 0.718223 0.142857 -0.680960
0.749793 0.310576 -0.090978 0.676565 0.280221 -0.680960
-0.450885 0.674797 -0.090978 -0.406842 0.608875 -0.680960
-0.573867 0.573867 -0.090978 -0.517808 0.517808 -0.680960
-0.310575 -0.749794 -0.090978 -0.280221 -0.676565 -0.680960
-0.158329 -0.795977 -0.090978 -0.142857 -0.718223 -0.680960
0.795977 -0.158329 -0.090978 0.718223 -0.142857 -0.680960
0.811571 0.000001 -0.090978 0.732292 0.000000 -0.680960
-0.158330 0.795977 -0.090978 -0.142857 0.718223 -0.680960
-0.310575 0.749794 -0.090978 -0.280221 0.676565 -0.680960
-0.573867 -0.573867 -0.090978 -0.517808 -0.517808 -0.680960
-0.450885 -0.674797 -0.090978 -0.406842 -0.608875 -0.680960
0.674797 -0.450884 -0.090978 0.608875 -0.406842 -0.680960
0.749794 -0.310574 -0.090978 0.676565 -0.280221 -0.680960
-0.749794 -0.310575 -0.090978 -0.676565 -0.280221 -0.680960
-0.674797 -0.450885 -0.090978 -0.608875 -0.406842 -0.680960
0.158328 0.795977 -0.090978 0.142857 0.718223 -0.680960
0.573868 -0.573867 -0.090978 0.517808 -0.517808 -0.680960
-0.795977 -0.158330 -0.090978 -0.718223 -0.142857 -0.680960
-0.000000 0.811571 -0.090978 0.000000 0.732292 -0.680960
0.266025 -0.642240 -0.177925 0.174243 -0.574403 -0.799813
0.310575 -0.749794 -0.090978 0.174243 -0.574403 -0.799813
0.158330 -0.795977 -0.090978 0.174243 -0.574403 -0.799813
0.135618 -0.681799 -0.177925 0.174243 -0.574403 -0.799813
-0.681799 0.135618 -0.177925 -0.574403 0.174244 -0.799812
-0.795977 0.158330 -0.090978 -0.574403 0.174244 -0.799812
-0.749794 0.310575 -0.090978 -0.574403 0.174244 -0.799812
-0.642240 0.266025 -0.177925 -0.574403 0.174244 -0.799812
0.674796 0.450886 -0.090978 0.529373 0.282957 -0.799812
0.749793 0.310576 -0.090978 0.529373 0.282957 -0.799812
0.642240 0.266025 -0.177925 0.529373 0.282957 -0.799812
0.578001 0.386209 -0.177925 0.529373 0.282957 -0.799812
-0.578001 0.386208 -0.177925 -0.464000 0.380795 -0.799812
-0.674797 0.450885 -0.090978 -0.464000 0.380795 -0.799812
-0.573867 0.573867 -0.090978 -0.464000 0.380795 -0.799812
-0.491550 0.491550 -0.177925 -0.464000 0.380795 -0.799812
0.000000 -0.695156 -0.177925 -0.058835 -0.597359 -0.799813
0.000000 -0.811571 -0.090978 -0.058835 -0.597359 -0.799813
-0.158329 -0.795977 -0.090978 -0.058835 -0.597359 -0.799813
-0.135618 -0.681799 -0.177925 -0.058835 -0.597359 -0.799813
0.795977 0.158331 -0.090978 0.597360 0.058835 -0.799812
0.811571 0.000001 -0.090978 0.597360 0.058835 -0.799812
0.695156 0.000001 -0.177925 0.597360 0.058835 -0.799812
0.681799 0.135619 -0.177925 0.597360 0.058835 -0.799812
-0.450885 0.674797 -0.090978 -0.282956 0.529373 -0.799812
-0.310575 0.749794 -0.090978 -0.282956 0.529373 -0.799812
-0.266025 0.642240 -0.177925 -0.282956 0.529373 -0.799812
-0.386208 0.578001 -0.177925 -0.282956 0.529373 -0.799812
-0.266025 -0.642240 -0.177925 -0.282956 -0.529373 -0.799813
-0.310575 -0.749794 -0.090978 -0.282956 -0.529373 -0.799813
-0.450885 -0.674797 -0.090978 -0.282956 -0.529373 -0.799813
-0.386208 -0.578001 -0.177925 -0.282956 -0.529373 -0.799813
0.795977 -0.158329 -0.090978 0.574403 -0.174243 -0.799813
0.749794 -0.310574 -0.090978 0.574403 -0.174243 -0.799813
0.642241 -0.266024 -0.177925 0.574403 -0.174243 -0.799813
0.681799 -0.135618 -0.177925 0.574403 -0.174243 -0.799813
-0.158330 0.795977 -0.090978 -0.058835 0.597360 -0.799812
-0.000000 0.811571 -0.090978 -0.058835 0.597360 -0.799812
-0.000000 0.695156 -0.177925 -0.058835 0.597360 -0.799812
-0.135618 0.681799 -0.177925 -0.058835 0.597360 -0.799812
-0.491550 -0.491550 -0.177925 -0.464000 -0.380795 -0.799812
-0.573867 -0.573867 -0.090978 -0.464000 -0.380795 -0.799812
-0.674797 -0.450885 -0.090978 -0.464000 -0.380795 -0.799812
-0.578001 -0.386208 -0.177925 -0.464000 -0.380795 -0.799812
-0.000000 0.811571 -0.090978 0.058834 0.597360 -0.799812
0.158328 0.795977 -0.090978 0.058834 0.597360 -0.799812
0.135617 0.681799 -0.177925 0.058834 0.597360 -0.799812
-0.000000 0.695156 -0.177925 0.058834 0.597360 -0.799812
0.674797 -0.450884 -0.090978 0.464000 -0.380794 -0.799812
0.573868 -0.573867 -0.090978 0.464000 -0.380794 -0.799812
0.491550 -0.491549 -0.177925 0.464000 -0.380794 -0.799812
0.578001 -0.386208 -0.177925 0.464000 -0.380794 -0.799812
-0.749794 -0.310575 -0.090978 -0.574403 -0.174244 -0.799813
-0.795977 -0.158330 -0.090978 -0.574403 -0.174244 -0.799813
-0.681799 -0.135618 -0.177925 -0.574403 -0.174244 -0.799813
-0.642240 -0.266025 -0.177925 -0.574403 -0.174244 -0.799813
0.310574 0.749794 -0.090978 0.282955 0.529374 -0.799812
0.450884 0.674797 -0.090978 0.282955 0.529374 -0.799812
0.386207 0.578002 -0.177925 0.282955 0.529374 -0.799812
0.266024 0.642241 -0.177925 0.282955 0.529374 -0.799812
0.386208 -0.578001 -0.177925 0.282956 -0.529373 -0.799812
0.450885 -0.674796 -0.090978 0.282956 -0.529373 -0.799812
0.310575 -0.749794 -0.090978 0.282956 -0.529373 -0.799812
0.266025 -0.642240 -0.177925 0.282956 -0.529373 -0.799812
-0.695156 0.000000 -0.177925 -0.597360 0.058835 -0.799812
-0.811571 0.000000 -0.090978 -0.597360 0.058835 -0.799812
-0.795977 0.158330 -0.090978 -0.597360 0.058835 -0.799812
-0.681799 0.135618 -0.177925 -0.597360 0.058835 -0.799812
0.573867 0.573868 -0.090978 0.463999 0.380795 -0.799812
0.674796 0.450886 -0.090978 0.463999 0.380795 -0.799812
0.578001 0.386209 -0.177925 0.463999 0.380795 -0.799812
0.491549 0.491550 -0.177925 0.463999 0.380795 -0.799812
0.135618 -0.681799 -0.177925 0.058835 -0.597359 -0.799812
0.158330 -0.795977 -0.090978 0.058835 -0.597359 -0.799812
0.000000 -0.811571 -0.090978 0.058835 -0.597359 -0.799812
0.000000 -0.695156 -0.177925 0.058835 -0.597359 -0.799812
-0.749794 0.310575 -0.090978 -0.529373 0.282956 -0.799812
-0.674797 0.450885 -0.090978 -0.529373 0.282956 -0.799812
-0.578001 0.386208 -0.177925 -0.529373 0.282956 -0.799812
-0.642240 0.266025 -0.177925 -0.529373 0.282956 -0.799812
0.749793 0.310576 -0.090978 0.574403 0.174244 -0.799812
0.795977 0.158331 -0.090978 0.574403 0.174244 -0.799812
0.681799 0.135619 -0.177925 0.574403 0.174244 -0.799812
0.642240 0.266025 -0.177925 0.574403 0.174244 -0.799812
-0.491550 0.491550 -0.177925 -0.380794 0.464000 -0.799812
-0.573867 0.573867 -0.090978 -0.380794 0.464000 -0.799812
-0.450885 0.674797 -0.090978 -0.380794 0.464000 -0.799812
-0.386208 0.578001 -0.177925 -0.380794 0.464000 -0.799812
-0.135618 -0.681799 -0.177925 -0.174243 -0.574403 -0.799813
-0.158329 -0.795977 -0.090978 -0.174243 -0.574403 -0.799813
-0.310575 -0.749794 -0.090978 -0.174243 -0.574403 -0.799813
-0.266025 -0.642240 -0.177925 -0.174243 -0.574403 -0.799813
0.811571 0.000001 -0.090978 0.597360 -0.058834 -0.799812
0.795977 -0.158329 -0.090978 0.597360 -0.058834 -0.799812
0.681799 -0.135618 -0.177925 0.597360 -0.058834 -0.799812
0.695156 0.000001 -0.177925 0.597360 -0.058834 -0.799812
-0.266025 0.642240 -0.177925 -0.174243 0.574404 -0.799812
-0.310575 0.749794 -0.090978 -0.174243 0.574404 -0.799812
-0.158330 0.795977 -0.090978 -0.174243 0.574404 -0.799812
-0.135618 0.681799 -0.177925 -0.174243 0.574404 -0.799812
-0.386208 -0.578001 -0.177925 -0.380794 -0.464000 -0.799812
-0.450885 -0.674797 -0.090978 -0.380794 -0.464000 -0.799812
-0.573867 -0.573867 -0.090978 -0.380794 -0.464000 -0.799812
-0.491550 -0.491550 -0.177925 -0.380794 -0.464000 -0.799812
0.749794 -0.310574 -0.090978 0.529373 -0.282955 -0.799813
0.674797 -0.450884 -0.090978 0.529373 -0.282955 -0.799813
0.578001 -0.386208 -0.177925 0.529373 -0.282955 -0.799813
0.642241 -0.266024 -0.177925 0.529373 -0.282955 -0.799813
-0.578001 -0.386208 -0.177925 -0.529373 -0.282956 -0.799812
-0.674797 -0.450885 -0.090978 -0.529373 -0.282956 -0.799812
-0.749794 -0.310575 -0.090978 -0.529373 -0.282956 -0.799812
-0.642240 -0.266025 -0.177925 -0.529373 -0.282956 -0.799812
0.158328 0.795977 -0.090978 0.174242 0.574404 -0.799812
0.310574 0.749794 -0.090978 0.174242 0.574404 -0.799812
0.266024 0.642241 -0.177925 0.174242 0.574404 -0.799812
0.135617 0.681799 -0.177925 0.174242 0.574404 -0.799812
0.573868 -0.573867 -0.090978 0.380795 -0.463999 -0.799812
0.450885 -0.674796 -0.090978 0.380795 -0.463999 -0.799812
0.386208 -0.578001 -0.177925 0.380795 -0.463999 -0.799812
0.491550 -0.491549 -0.177925 0.380795 -0.463999 -0.799812
-0.681799 -0.135618 -0.177925 -0.597360 -0.058835 -0.799812
-0.795977 -0.158330 -0.090978 -0.597360 -0.058835 -0.799812
-0.811571 0.000000 -0.090978 -0.597360 -0.058835 -0.799812
-0.695156 0.000000 -0.177925 -0.597360 -0.058835 -0.799812
-0.642240 0.266025 -0.177925 0.000000 0.000000 -1.000000
-0.386208 0.578001 -0.177925 0.000000 0.000000 -1.000000
-0.000000 0.695156 -0.177925 0.000000 0.000000 -1.000000
0.135617 0.681799 -0.177925 0.000000 0.000000 -1.000000
0.491549 0.491550 -0.177925 0.000000 0.000000 -1.000000
-0.642240 -0.266025 -0.177925 0.000000 0.000000 -1.000000
0.642241 -0.266024 -0.177925 0.000000 0.000000 -1.000000
-0.135618 -0.681799 -0.177925 0.000000 0.000000 -1.000000
-0.266025 0.642240 -0.177925 0.000000 0.000000 -1.000000
-0.135618 0.681799 -0.177925 0.000000 0.000000 -1.000000
-0.681799 -0.135618 -0.177925 0.000000 -0.000000 -1.000000
-0.695156 0.000000 -0.177925 0.000000 -0.000000 -1.000000
-0.266025 -0.642240 -0.177925 0.000000 0.000000 -1.000000
-0.491550 -0.491550 -0.177925 0.000000 0.000000 -1.000000
0.578001 0.386209 -0.177925 0.000000 0.000000 -1.000000
0.642240 0.266025 -0.177925 0.000000 0.000000 -1.000000
0.681799 -0.135618 -0.177925 0.000000 0.000000 -1.000000
0.266025 -0.642240 -0.177925 0.000000 -0.000000 -1.000000
0.135618 -0.681799 -0.177925 0.000000 -0.000000 -1.000000
-0.578001 0.386208 -0.177925 0.000000 0.000000 -1.000000
-0.491550 0.491550 -0.177925 0.000000 0.000000 -1.000000
0.578001 -0.386208 -0.177925 0.000000 0.000000 -1.000000
0.491550 -0.491549 -0.177925 0.000000 0.000000 -1.000000
-0.681799 0.135618 -0.177925 0.000000 0.000000 -1.000000
-0.386208 -0.578001 -0.177925 0.000000 0.000000 -1.000000
0.681799 0.135619 -0.177925 0.000000 0.000000 -1.000000
0.695156 0.000001 -0.177925 0.000000 0.000000 -1.000000
0.386208 -0.578001 -0.177925 0.000000 0.000000 -1.000000
0.266024 0.642241 -0.177925 0.000000 0.000000 -1.000000
0.386207 0.578002 -0.177925 0.000000 0.000000 -1.000000
-0.578001 -0.386208 -0.177925 0.000000 0.000000 -1.000000
0.000000 -0.695156 -0.177925 0.000000 0.000000 -1.000000
4 0 1 2 3
4 4 5 6 7
4 1 0 4 8
4 9 10 11 12
4 13 14 15 16
4 17 18 19 20
4 21 22 23 24
4 25 26 27 28
4 29 30 31 32
4 33 34 35 36
4 37 38 39 40
4 41 42 43 44
4 45 46 47 48
4 49 50 51 52
4 53 54 55 56
4 57 58 59 60
4 0 61 5 4
4 62 63 10 9
4 64 65 15 14
4 17 1 8 18
4 12 11 22 21
4 26 13 16 27
4 20 19 30 29
4 33 25 28 34
4 38 24 23 39
4 32 31 43 42
4 36 35 46 45
4 50 37 40 51
4 54 41 44 55
4 48 47 66 67
4 49 52 58 57
4 61 67 66 5
4 62 53 56 63
4 60 59 65 64
4 68 69 70 71
4 63 72 73 10
4 65 74 75 15
4 18 8 76 77
4 11 78 79 22
4 27 16 80 81
4 19 82 83 30
4 34 28 84 85
4 39 23 86 87
4 31 88 89 43
4 35 90 91 46
4 51 40 92 93
4 55 44 94 69
4 47 95 96 66
4 52 97 98 58
4 5 66 96 6
4 63 56 68 72
4 59 99 74 65
4 8 4 7 76
4 10 73 78 11
4 16 15 75 80
4 18 77 82 19
4 22 79 86 23
4 28 27 81 84
4 30 83 88 31
4 34 85 90 35
4 40 39 87 92
4 44 43 89 94
4 46 91 95 47
4 52 51 93 97
4 56 55 69 68
4 58 98 99 59
4 100 101 102 103
4 98 104 105 99
4 7 6 106 107
4 72 108 109 73
4 74 110 111 75
4 77 76 112 113
4 78 114 115 79
4 81 80 116 117
4 82 118 119 83
4 85 84 120 121
4 87 86 122 123
4 88 124 100 89
4 90 125 126 91
4 93 92 127 128
4 69 94 103 70
4 95 129 130 96
4 97 131 104 98
4 6 96 130 106
4 72 68 71 108
4 99 105 110 74
4 76 7 107 112
4 73 109 114 78
4 80 75 111 116
4 77 113 118 82
4 79 115 122 86
4 84 81 117 120
4 83 119 124 88
4 85 121 125 90
4 92 87 123 127
4 94 89 100 103
4 91 126 129 95
4 97 93 128 131
4 132 133 134 135
4 126 136 137 129
4 128 138 139 131
4 70 140 141 71
4 104 142 143 105
4 106 144 145 107
4 108 146 147 109
4 110 148 149 111
4 112 150 151 113
4 114 152 153 115
4 116 154 155 117
4 118 156 133 119
4 120 157 158 121
4 122 159 160 123
4 124 132 101 100
4 125 161 136 126
4 127 162 138 128
4 103 102 140 70
4 129 137 163 130
4 131 139 142 104
4 130 163 144 106
4 71 141 146 108
4 105 143 148 110
4 107 145 150 112
4 109 147 152 114
4 111 149 154 116
4 113 151 156 118
4 115 153 159 122
4 117 155 157 120
4 119 133 132 124
4 121 158 161 125
4 123 160 162 127
4 164 165 166 167
4 161 158 168 169
4 160 170 171 162
4 101 172 173 102
4 137 136 174 175
4 138 176 177 139
4 140 178 179 141
4 143 142 180 181
4 144 182 183 145
4 147 146 184 185
4 149 148 186 187
4 150 188 165 151
4 153 152 189 190
4 154 191 192 155
4 133 156 164 134
4 157 193 168 158
4 159 194 170 160
4 101 132 135 172
4 136 161 169 174
4 162 171 176 138
4 102 173 178 140
4 163 137 175 195
4 142 139 177 180
4 163 195 182 144
4 141 179 184 146
4 148 143 181 186
4 145 183 188 150
4 152 147 185 189
4 149 187 191 154
4 156 151 165 164
4 159 153 190 194
4 155 192 193 157
4 196 197 198 199
4 194 190 200 201
4 192 202 203 193
4 135 134 204 205
4 169 168 206 207
4 170 208 209 171
4 172 210 211 173
4 175 174 212 213
4 176 214 215 177
4 178 216 217 179
4 181 180 218 219
4 182 220 221 183
4 185 184 222 223
4 187 186 224 225
4 188 226 166 165
4 190 189 227 200
4 191 228 202 192
4 134 164 167 204
4 193 203 206 168
4 194 201 208 170
4 172 135 205 210
4 174 169 207 212
4 171 209 214 176
4 173 211 216 178
4 195 175 213 229
4 180 177 215 218
4 195 229 220 182
4 179 217 222 184
4 186 181 219 224
4 183 221 226 188
4 189 185 223 227
4 187 225 228 191
4 230 231 232 233
4 234 235 236 237
4 238 239 240 241
4 242 243 244 245
4 246 247 248 249
4 250 251 252 253
4 254 255 256 257
4 258 259 260 261
4 262 263 264 265
4 266 267 268 269
4 270 271 272 273
4 274 275 276 277
4 278 279 280 281
4 282 283 284 285
4 286 287 288 289
4 290 291 292 293
4 294 295 296 297
4 298 299 300 301
4 302 303 304 305
4 306 307 308 309
4 310 311 312 313
4 314 315 316 317
4 318 319 320 321
4 322 323 324 325
4 326 327 328 329
4 330 331 332 333
4 334 335 336 337
4 338 339 340 341
4 342 343 344 345
4 346 347 348 349
4 350 351 352 353
3 354 355 356
3 357 354 356
3 357 356 358
3 359 357 358
3 359 358 360
3 361 359 360
3 361 360 362
3 363 361 362
3 363 362 364
3 365 363 364
3 365 364 366
3 367 365 366
3 367 366 368
3 369 367 368
3 369 368 370
3 371 369 370
3 371 370 372
3 373 371 372
3 373 372 374
3 373 374 375
3 374 376 375
3 376 377 375
3 376 378 377
3 378 379 377
3 378 380 379
3 380 381 379
3 380 382 381
3 382 383 381
3 382 384 383
3 384 385 383
4 386 387 388 389
4 12 390 391 9
4 14 13 392 393
4 20 394 395 17
4 24 396 397 21
4 26 25 398 399
4 32 400 401 29
4 36 402 403 33
4 38 37 404 405
4 42 41 406 407
4 48 408 409 45
4 50 49 410 411
4 54 53 412 413
4 60 414 415 57
4 61 0 3 416
4 9 391 417 62
4 14 393 418 64
4 1 17 395 2
4 21 397 390 12
4 13 26 399 392
4 29 401 394 20
4 25 33 403 398
4 24 38 405 396
4 42 407 400 32
4 45 409 402 36
4 37 50 411 404
4 41 54 413 406
4 67 419 408 48
4 57 415 410 49
4 67 61 416 419
4 53 62 417 412
4 64 418 414 60
4 420 421 422 423
4 424 425 426 427
4 428 429 430 431
4 432 433 434 435
4 436 437 438 439
4 440 441 442 443
4 444 445 446 447
4 448 449 450 451
4 452 453 454 455
4 456 457 458 459
4 460 461 462 463
4 464 465 466 467
4 468 469 470 471
4 472 473 474 475
4 476 477 478 479
4 480 481 482 483
4 484 485 486 487
4 488 489 490 491
4 492 493 494 495
4 496 497 498 499
4 500 501 502 503
4 504 505 506 507
4 508 509 510 511
4 512 513 514 515
4 516 517 518 519
4 520 521 522 523
4 524 525 526 527
4 528 529 530 531
4 532 533 534 535
4 536 537 538 539
4 540 541 542 543
4 544 545 546 547
4 547 548 549 544
4 548 550 551 549
4 545 552 553 546
4 549 554 555 544
4 551 556 557 549
4 548 558 559 560
4 561 562 551 550
4 544 563 564 545
4 550 565 566 561
3 555 567 544
3 548 560 550
3 556 568 557
4 559 569 570 560
3 566 571 561
4 572 573 548 547
3 557 574 549
3 562 575 551
